<?xml version="1.0" standalone="no"?>
<!DOCTYPE svg PUBLIC "-//W3C//DTD SVG 20010904//EN"
 "http://www.w3.org/TR/2001/REC-SVG-20010904/DTD/svg10.dtd">
<svg version="1.0" xmlns="http://www.w3.org/2000/svg"
 width="607.000000pt" height="607.000000pt" viewBox="0 0 607.000000 607.000000"
 preserveAspectRatio="xMidYMid meet">
<metadata>
Created by potrace 1.11, written by Peter Selinger 2001-2013
</metadata>
<g transform="translate(0.000000,607.000000) scale(0.100000,-0.100000)"
fill="#000000" stroke="none">
<path d="M2551 6049 c-13 -11 -22 -22 -19 -24 2 -3 14 4 26 15 12 12 22 16 22
11 0 -5 -13 -18 -30 -28 -16 -9 -30 -21 -30 -26 0 -4 -5 -5 -12 -1 -8 5 -9 2
-4 -11 6 -16 4 -16 -11 -4 -11 9 -14 10 -9 1 4 -7 1 -19 -8 -27 -17 -18 -30
-20 -20 -3 4 7 3 8 -5 4 -9 -6 -9 -11 1 -24 7 -9 8 -13 2 -9 -6 3 -20 -1 -30
-9 -10 -9 -13 -12 -5 -8 9 5 12 3 7 -4 -4 -7 -14 -12 -22 -12 -8 0 -13 -5 -11
-11 1 -6 -4 -14 -12 -17 -9 -3 -11 0 -6 8 5 9 4 11 -4 6 -9 -6 -9 -11 1 -24 7
-9 8 -13 2 -9 -6 3 -20 -1 -30 -9 -10 -9 -12 -13 -4 -9 8 4 6 0 -4 -9 -10 -8
-24 -12 -30 -9 -6 4 -5 0 2 -9 10 -13 9 -18 -5 -29 -14 -12 -16 -12 -9 0 6 9
5 12 -5 9 -8 -3 -13 -11 -11 -17 1 -6 -3 -11 -9 -11 -5 0 -7 -4 -4 -10 3 -5 0
-7 -8 -4 -8 3 -18 0 -23 -7 -5 -8 -3 -10 7 -4 12 8 12 6 0 -8 -15 -19 -36 -23
-25 -5 4 7 3 8 -5 4 -9 -6 -9 -11 1 -24 7 -9 8 -13 2 -9 -6 3 -20 -1 -30 -9
-10 -9 -12 -13 -4 -9 8 4 6 0 -4 -9 -10 -8 -24 -12 -30 -9 -6 4 -5 0 2 -9 10
-13 9 -18 -5 -29 -14 -12 -16 -12 -9 0 6 9 4 12 -5 9 -8 -3 -14 -11 -14 -19 0
-8 -8 -13 -18 -13 -15 2 -16 -1 -5 -14 7 -9 8 -13 2 -9 -6 3 -20 -1 -30 -9
-10 -9 -13 -12 -5 -8 10 5 12 3 7 -5 -5 -7 -14 -10 -22 -7 -9 3 -11 0 -7 -11
5 -12 3 -14 -7 -8 -10 6 -12 4 -7 -8 4 -11 2 -14 -7 -11 -8 3 -17 0 -22 -7 -5
-8 -3 -10 7 -4 12 8 12 6 0 -8 -15 -19 -36 -23 -25 -5 4 7 3 8 -5 4 -9 -6 -9
-11 1 -24 7 -9 8 -13 2 -9 -6 3 -20 -1 -30 -9 -10 -9 -13 -12 -5 -8 9 5 12 3
7 -4 -4 -7 -14 -12 -22 -12 -8 0 -13 -5 -11 -11 1 -6 -4 -14 -12 -17 -9 -3
-11 0 -6 8 5 9 4 11 -4 6 -9 -6 -9 -11 1 -24 7 -9 8 -13 2 -9 -6 3 -20 -1 -30
-9 -10 -9 -12 -13 -4 -9 8 4 6 0 -4 -9 -10 -8 -24 -12 -30 -9 -6 4 -5 0 2 -9
15 -18 7 -25 -25 -22 -12 0 -20 -3 -17 -8 3 -4 11 -5 17 -1 7 4 6 -1 -2 -11
-8 -9 -21 -14 -29 -11 -13 5 -13 3 -1 -12 8 -9 9 -14 3 -10 -6 3 -20 -1 -30
-9 -10 -9 -13 -12 -5 -8 10 5 12 3 7 -5 -5 -7 -14 -10 -22 -7 -9 3 -11 0 -7
-11 5 -12 3 -14 -7 -8 -10 6 -12 4 -6 -10 6 -16 4 -16 -11 -4 -12 10 -15 10
-9 1 4 -7 2 -19 -4 -27 -15 -18 -34 -20 -24 -3 4 7 3 8 -5 4 -9 -6 -9 -11 1
-24 7 -9 8 -13 2 -9 -6 3 -20 -1 -30 -9 -10 -9 -12 -13 -4 -9 16 7 1 -7 -37
-33 -10 -7 -12 -10 -4 -6 10 5 12 3 7 -5 -5 -7 -14 -10 -22 -7 -9 3 -11 0 -7
-11 5 -12 3 -14 -7 -8 -10 6 -12 4 -7 -8 4 -12 2 -14 -11 -10 -9 3 -14 3 -10
-2 4 -4 1 -14 -7 -21 -17 -17 -29 -18 -19 -2 4 7 3 8 -5 4 -9 -6 -9 -11 1 -24
7 -9 8 -13 2 -9 -6 3 -20 -1 -30 -9 -10 -9 -13 -12 -5 -8 9 5 12 3 7 -4 -4 -7
-15 -12 -24 -12 -13 0 -14 -2 -4 -9 11 -7 10 -10 -3 -15 -24 -9 -27 -8 -19 6
4 7 3 8 -5 4 -9 -6 -9 -11 1 -24 7 -9 8 -13 2 -9 -6 3 -20 -1 -30 -9 -10 -9
-12 -13 -4 -9 8 4 6 0 -4 -9 -10 -8 -24 -12 -30 -9 -6 4 -6 0 1 -9 14 -17 8
-29 -12 -22 -7 3 -16 0 -21 -7 -5 -8 -3 -10 7 -5 8 4 6 1 -3 -7 -10 -8 -15
-17 -11 -21 4 -4 0 -4 -9 -1 -9 4 -19 1 -24 -6 -5 -8 -3 -10 7 -4 12 8 12 6 0
-9 -8 -9 -21 -14 -29 -11 -13 5 -13 3 -1 -12 8 -9 9 -14 3 -10 -6 3 -20 -1
-30 -9 -10 -9 -12 -13 -4 -9 8 4 6 0 -4 -9 -10 -8 -24 -12 -30 -9 -6 4 -5 0 2
-9 15 -18 7 -25 -25 -22 -12 0 -20 -3 -17 -8 3 -4 10 -5 16 -2 7 4 8 2 4 -4
-4 -7 -13 -12 -19 -12 -15 -1 -62 -39 -55 -45 3 -3 13 4 23 15 10 11 22 20 27
20 5 0 -5 -12 -24 -27 -18 -16 -35 -31 -36 -36 -2 -4 -9 -4 -15 0 -6 4 -8 0
-4 -10 4 -12 2 -14 -11 -10 -9 3 -14 3 -10 -2 4 -4 1 -14 -7 -21 -17 -17 -29
-18 -19 -2 4 7 3 8 -5 4 -9 -6 -9 -11 1 -24 7 -9 8 -13 2 -9 -6 3 -20 -1 -30
-9 -10 -9 -12 -13 -4 -9 16 7 1 -7 -37 -33 -10 -7 -12 -10 -4 -6 10 5 12 3 7
-5 -5 -7 -14 -10 -22 -7 -9 3 -11 0 -7 -11 5 -12 3 -14 -7 -8 -10 6 -12 4 -7
-8 4 -11 2 -14 -7 -11 -8 3 -17 0 -22 -7 -5 -8 -3 -10 7 -4 12 8 12 6 0 -8
-15 -19 -36 -23 -25 -5 4 7 3 8 -5 4 -9 -6 -9 -11 1 -24 7 -9 8 -13 2 -9 -6 3
-20 -1 -30 -9 -10 -9 -13 -12 -5 -8 9 5 12 3 7 -4 -4 -7 -14 -12 -22 -12 -8 0
-13 -6 -12 -12 2 -7 -5 -12 -15 -12 -15 2 -16 -1 -5 -14 7 -9 8 -13 2 -9 -6 3
-20 -1 -30 -9 -10 -9 -12 -13 -4 -9 8 4 6 0 -4 -9 -10 -8 -24 -12 -30 -9 -6 4
-5 0 2 -9 10 -13 9 -18 -5 -29 -10 -8 -14 -9 -10 -2 5 8 1 11 -12 10 -14 -1
-17 -5 -10 -13 12 -15 -5 -29 -24 -18 -7 5 -6 0 3 -11 8 -10 10 -16 4 -12 -6
3 -20 -1 -30 -9 -10 -9 -13 -12 -5 -8 10 5 12 3 7 -5 -5 -7 -14 -10 -22 -7 -9
3 -11 0 -7 -11 5 -12 3 -14 -7 -8 -10 6 -12 4 -6 -10 6 -16 4 -16 -11 -4 -11
9 -14 10 -9 1 4 -7 1 -19 -8 -27 -17 -18 -30 -20 -20 -3 4 7 3 8 -5 4 -9 -6
-9 -11 1 -24 7 -9 8 -13 2 -9 -6 3 -20 -1 -30 -9 -10 -9 -13 -12 -5 -8 9 5 12
3 7 -4 -4 -7 -14 -12 -22 -12 -8 0 -13 -5 -12 -11 2 -6 -3 -14 -11 -17 -9 -3
-11 0 -6 8 5 9 4 11 -4 6 -9 -6 -9 -11 1 -24 7 -9 8 -13 2 -9 -6 3 -20 -1 -30
-9 -10 -9 -12 -13 -4 -9 8 4 6 0 -4 -9 -10 -8 -24 -12 -30 -9 -6 4 -5 0 2 -9
15 -18 7 -25 -25 -22 -12 0 -20 -3 -17 -8 3 -4 11 -6 17 -2 7 3 4 -1 -5 -9
-10 -8 -15 -17 -11 -21 4 -4 0 -4 -9 -1 -9 4 -19 1 -24 -6 -5 -8 -3 -10 7 -4
12 8 12 6 0 -9 -8 -9 -21 -14 -29 -11 -13 5 -13 3 -1 -12 8 -9 9 -14 3 -10 -6
3 -20 -1 -30 -9 -10 -9 -12 -13 -4 -9 8 4 6 0 -4 -9 -10 -8 -24 -12 -30 -9 -6
4 -5 0 2 -9 10 -13 9 -18 -5 -29 -14 -12 -16 -12 -9 0 6 9 4 12 -5 9 -8 -3
-14 -11 -14 -19 0 -8 -8 -13 -18 -13 -15 2 -16 -1 -5 -14 7 -9 8 -13 2 -9 -6
3 -20 -1 -30 -9 -10 -9 -13 -12 -5 -8 10 5 12 3 7 -5 -5 -7 -15 -10 -23 -7 -8
3 -11 1 -8 -4 3 -6 -1 -20 -9 -32 -9 -12 -16 -18 -16 -12 0 5 6 16 13 23 6 8
0 6 -16 -4 -15 -9 -27 -19 -27 -22 0 -2 5 -1 10 2 6 3 10 1 10 -4 0 -6 -6 -11
-14 -11 -7 0 -16 -9 -19 -20 -8 -30 -8 -35 1 -35 18 -1 31 -17 25 -32 -4 -10
-2 -14 4 -10 6 4 14 0 17 -8 3 -8 11 -14 18 -13 6 2 14 -5 16 -14 3 -14 -2
-17 -22 -16 -13 1 -22 6 -20 10 3 4 0 8 -6 8 -6 0 -8 5 -5 10 5 9 -8 14 -19 8
-3 -2 -16 8 -30 21 l-26 24 0 -441 c0 -388 2 -442 16 -456 8 -9 21 -13 27 -9
7 4 5 -2 -3 -12 -9 -11 -10 -16 -2 -11 6 4 12 2 12 -3 0 -6 10 -11 23 -12 12
0 16 -3 10 -6 -7 -2 -13 -9 -13 -14 0 -4 8 -5 17 -2 13 5 15 2 10 -11 -6 -14
-3 -16 13 -11 11 4 20 3 19 -2 -4 -21 3 -32 21 -38 11 -3 20 -13 20 -21 0 -8
9 -14 19 -14 10 0 22 -7 25 -16 5 -12 3 -14 -7 -8 -7 5 -4 1 6 -8 11 -10 23
-16 27 -13 5 3 11 -4 15 -15 4 -11 11 -18 16 -15 5 3 6 0 3 -8 -3 -8 3 -20 13
-28 17 -13 17 -13 3 6 -14 19 -14 19 3 6 10 -8 16 -20 13 -27 -3 -8 0 -11 10
-7 9 3 14 -1 14 -12 0 -11 5 -15 15 -11 9 3 19 -3 25 -17 11 -21 11 -21 -4 -3
-9 11 -16 15 -16 8 0 -14 40 -43 51 -36 4 2 10 -5 14 -16 4 -11 11 -18 16 -15
5 3 6 0 3 -8 -3 -8 3 -20 13 -28 17 -13 17 -13 3 6 -14 19 -14 19 2 6 10 -7
18 -20 18 -28 0 -8 4 -11 10 -8 6 3 10 -1 10 -9 0 -9 5 -16 11 -16 5 0 7 -6 3
-12 -5 -8 -2 -8 10 1 9 8 16 10 15 5 -4 -24 3 -34 24 -35 12 0 16 -3 10 -6 -7
-2 -13 -9 -13 -14 0 -4 8 -5 17 -2 13 5 15 2 10 -11 -6 -14 -3 -16 13 -11 11
4 20 3 19 -2 -4 -21 3 -32 21 -38 11 -3 20 -13 20 -21 0 -13 13 -19 34 -15 5
1 3 -6 -5 -15 -9 -12 -9 -15 -2 -10 7 4 13 2 13 -3 0 -6 10 -11 23 -12 12 0
16 -3 10 -6 -7 -2 -13 -9 -13 -14 0 -4 8 -5 17 -2 13 5 15 2 10 -11 -5 -14 -3
-17 8 -12 8 3 15 1 15 -5 0 -6 4 -8 9 -4 5 3 13 0 17 -6 4 -8 3 -9 -4 -5 -7 4
-12 3 -12 -3 0 -5 9 -13 20 -16 11 -3 20 -13 20 -21 0 -8 9 -14 19 -14 10 0
22 -7 25 -16 5 -12 3 -14 -7 -8 -7 5 -4 1 6 -8 11 -10 23 -16 27 -13 5 3 11
-4 15 -15 4 -11 11 -18 16 -15 5 3 6 0 3 -8 -3 -8 3 -20 13 -28 17 -13 17 -13
3 6 -14 19 -14 19 3 6 10 -8 16 -20 13 -27 -3 -8 0 -11 10 -7 8 3 14 -1 14
-11 0 -9 8 -16 19 -16 10 0 22 -7 25 -16 6 -15 4 -15 -11 -3 -16 13 -17 12 -4
-3 7 -10 19 -18 26 -18 7 0 19 -8 26 -18 13 -16 13 -16 -6 -2 -19 14 -19 14
-6 -3 8 -10 20 -16 28 -13 8 3 11 2 8 -3 -3 -5 4 -12 15 -16 11 -4 18 -10 15
-15 -3 -4 3 -16 13 -27 9 -10 13 -13 8 -6 -6 10 -4 12 8 7 9 -3 16 -15 16 -25
0 -10 6 -19 14 -19 8 0 18 -9 21 -20 3 -11 11 -20 16 -20 6 0 7 5 3 12 -4 7
-3 8 5 4 6 -4 9 -12 6 -17 -4 -5 -2 -9 4 -9 6 0 8 -7 5 -15 -5 -11 -2 -13 12
-8 13 5 16 3 11 -10 -3 -9 -2 -17 2 -17 5 0 12 6 14 13 3 6 6 2 6 -10 1 -13 6
-23 12 -23 5 0 7 -6 3 -13 -5 -7 -2 -7 10 2 9 8 16 10 15 5 -4 -22 2 -34 17
-34 8 0 12 -4 9 -10 -5 -9 7 -14 27 -11 4 0 10 -8 13 -19 4 -11 11 -18 16 -15
5 3 6 0 3 -8 -3 -8 3 -20 13 -28 17 -13 17 -13 3 6 -14 19 -14 19 3 6 10 -8
16 -20 13 -27 -3 -8 0 -11 10 -7 8 3 14 -1 14 -11 0 -15 12 -21 34 -17 5 1 3
-6 -5 -15 -9 -12 -9 -15 -1 -10 6 4 12 2 12 -3 0 -6 10 -11 23 -12 12 0 16 -3
10 -6 -7 -2 -13 -9 -13 -14 0 -4 8 -5 17 -2 13 5 15 2 10 -11 -6 -14 -3 -16
13 -11 11 4 20 3 19 -2 -4 -22 3 -32 31 -43 18 -8 30 -20 30 -31 0 -11 7 -19
16 -19 8 0 12 -4 9 -10 -6 -9 1 -12 22 -9 11 1 24 -31 17 -44 -4 -6 -4 -9 1
-5 4 4 15 -1 24 -10 9 -10 12 -13 8 -6 -5 7 -3 15 4 20 7 4 9 3 5 -4 -3 -6 -1
-14 5 -17 5 -4 8 -13 5 -21 -3 -8 0 -11 10 -7 8 3 14 -1 14 -11 0 -15 12 -21
34 -17 5 1 3 -6 -5 -15 -9 -12 -9 -15 -1 -10 6 4 12 2 12 -3 0 -6 10 -11 23
-12 12 0 16 -3 10 -6 -7 -2 -13 -9 -13 -14 0 -4 8 -5 17 -2 13 5 15 2 10 -11
-5 -14 -3 -17 8 -12 8 3 15 1 15 -5 0 -6 4 -8 9 -4 5 3 13 0 17 -6 4 -8 3 -9
-4 -5 -7 4 -12 3 -12 -3 0 -5 9 -13 20 -16 11 -3 20 -13 20 -21 0 -13 13 -19
34 -15 5 1 3 -6 -5 -15 -9 -12 -9 -15 -1 -10 6 4 12 2 12 -3 0 -6 10 -11 23
-12 12 0 16 -3 10 -6 -7 -2 -13 -9 -13 -14 0 -4 8 -5 17 -2 13 5 15 2 10 -11
-6 -14 -3 -16 13 -11 11 4 20 3 19 -2 -4 -21 3 -32 21 -38 11 -3 20 -13 20
-21 0 -8 9 -14 19 -14 10 0 22 -7 25 -16 5 -12 3 -14 -7 -8 -7 5 -4 1 6 -8 11
-10 23 -16 27 -13 5 3 11 -4 15 -15 4 -11 11 -18 16 -15 5 3 6 0 3 -8 -3 -8 3
-20 13 -28 17 -13 17 -13 3 6 -14 19 -14 19 3 6 10 -8 16 -20 13 -27 -3 -8 0
-11 10 -7 8 3 14 -1 14 -11 0 -9 8 -16 19 -16 10 0 22 -7 25 -16 6 -15 4 -15
-11 -3 -13 11 -15 11 -9 1 8 -14 55 -37 69 -33 5 1 6 -3 2 -9 -4 -6 -12 -7
-19 -3 -7 4 -4 1 6 -8 9 -9 14 -20 10 -24 -4 -5 -2 -5 5 -2 14 9 45 -2 38 -13
-3 -4 3 -16 13 -27 9 -10 13 -13 8 -6 -6 10 -4 12 8 7 9 -3 16 -15 16 -25 0
-10 6 -19 14 -19 8 0 18 -9 21 -20 3 -11 11 -20 16 -20 6 0 7 5 3 12 -4 7 -3
8 4 4 6 -4 9 -13 5 -21 -3 -9 1 -15 10 -15 8 0 21 -8 28 -17 13 -17 13 -17 -6
-3 -18 14 -19 13 -8 -1 16 -20 62 -18 78 4 6 9 16 13 21 9 4 -4 2 1 -5 11 -12
15 -12 17 4 11 10 -4 16 -3 13 2 -3 5 4 18 15 29 11 11 16 14 12 6 -5 -9 -4
-12 3 -7 7 4 12 13 12 20 0 8 8 20 18 27 14 11 15 11 5 -1 -7 -8 -13 -19 -13
-24 0 -6 7 0 16 12 8 12 12 28 8 35 -5 7 0 6 11 -3 17 -13 18 -13 13 1 -8 21
47 78 55 57 3 -7 6 -3 6 10 1 15 5 21 13 16 8 -5 9 -2 5 10 -5 13 -3 15 12 7
13 -7 18 -6 18 4 0 8 -5 11 -11 8 -6 -3 -5 0 2 8 11 12 14 12 23 -1 8 -12 9
-10 4 8 -5 16 -2 22 10 22 9 0 13 4 10 10 -3 5 1 10 10 10 9 0 13 5 10 10 -3
6 4 10 17 11 13 0 17 3 10 6 -10 4 -6 13 13 33 15 16 33 26 40 24 7 -3 16 0
21 7 4 7 3 10 -3 6 -5 -3 -10 0 -10 7 0 7 6 13 14 14 7 1 20 3 28 4 10 1 12 5
6 11 -12 12 38 70 55 63 6 -2 11 3 10 12 0 9 9 21 21 27 13 7 20 15 16 18 -3
4 5 7 18 7 16 0 20 3 12 8 -9 6 -3 18 24 43 20 19 33 28 29 22 -4 -7 -2 -13 3
-13 6 0 11 9 11 21 0 14 5 19 14 16 8 -3 13 1 12 11 0 9 9 21 21 27 13 7 20
15 16 18 -3 4 5 7 18 8 13 0 18 3 11 6 -16 6 24 53 45 53 8 0 11 5 8 10 -3 6
4 10 17 10 15 0 19 3 11 8 -9 6 0 21 31 51 24 24 49 41 54 37 5 -3 9 2 8 11 0
9 9 22 21 28 13 7 20 15 16 18 -3 4 5 7 18 7 16 0 20 3 12 8 -9 6 -3 18 24 43
20 19 33 28 29 21 -4 -6 -3 -12 2 -12 16 0 22 13 12 25 -7 8 -5 12 5 13 8 1
22 3 30 4 8 1 12 5 9 10 -3 5 -11 5 -17 1 -7 -4 4 10 23 30 19 21 40 35 46 33
6 -2 11 3 10 12 0 9 9 21 21 27 13 7 20 15 16 18 -3 4 5 7 18 8 13 0 18 3 11
6 -16 6 24 53 45 53 8 0 11 4 8 10 -3 6 4 10 17 10 14 0 18 3 11 8 -8 5 1 20
26 48 33 35 40 38 49 25 10 -14 11 -14 6 2 -6 16 5 22 29 18 5 -1 6 3 2 9 -3
6 -12 7 -18 3 -7 -4 4 10 23 30 19 21 40 35 46 33 6 -2 11 3 10 12 0 9 9 21
21 27 13 7 20 15 16 18 -3 4 5 7 18 8 13 0 18 3 10 6 -9 4 4 22 40 59 37 38
55 50 61 41 5 -8 8 -4 8 11 0 13 4 20 10 17 6 -3 10 0 10 8 0 21 47 61 53 45
3 -7 6 -3 6 10 1 15 5 21 13 16 8 -5 9 -2 5 9 -3 9 -3 16 1 16 21 -3 32 2 26
13 -5 7 -2 9 9 5 11 -4 14 -2 10 9 -3 9 2 14 16 14 12 0 21 5 21 11 0 5 -6 7
-12 3 -7 -4 -2 5 11 19 14 15 30 27 37 27 7 0 16 5 20 12 5 7 3 8 -6 3 -9 -6
-11 -4 -6 4 5 7 15 10 23 7 10 -4 13 -2 10 8 -3 7 7 26 23 41 20 19 29 23 33
13 3 -7 6 -3 6 10 1 13 5 20 11 17 6 -3 10 0 10 8 0 21 47 61 53 45 3 -7 6 -3
6 10 1 15 5 21 13 16 7 -5 9 -2 5 9 -4 11 -2 14 7 11 8 -3 17 0 22 7 5 8 3 10
-6 4 -9 -6 -11 -4 -6 4 5 7 14 10 22 7 8 -3 11 0 7 10 -3 9 2 14 16 14 12 0
21 5 21 11 0 5 -5 7 -12 3 -7 -5 -8 -3 -4 5 5 7 14 10 22 7 8 -3 11 0 8 8 -3
8 0 17 7 22 7 4 10 3 5 -4 -3 -6 -3 -13 2 -16 5 -3 9 1 10 9 1 8 3 22 4 30 1
11 5 12 14 4 8 -6 14 -6 18 0 3 5 1 11 -5 13 -7 2 -4 10 7 18 11 9 15 10 10 3
-4 -7 -2 -13 3 -13 6 0 11 9 11 21 0 15 5 19 16 15 9 -3 12 -2 9 5 -10 15 14
39 39 39 17 0 18 2 6 10 -12 8 -10 10 10 11 14 0 19 3 12 6 -16 6 24 53 45 53
8 0 11 5 8 10 -3 6 4 10 17 11 13 0 17 3 10 6 -20 8 36 63 57 56 12 -4 13 -3
3 4 -7 6 -12 14 -11 19 3 19 -1 37 -8 31 -3 -4 -13 2 -20 13 -8 11 -20 17 -26
14 -7 -4 -9 -4 -6 0 4 4 -5 19 -20 34 -14 15 -34 38 -43 52 -14 20 -16 21 -12
5 5 -19 5 -19 -8 1 -7 11 -41 47 -75 79 -35 33 -63 65 -63 72 0 7 -5 13 -11
13 -5 0 -7 6 -3 13 5 7 0 6 -11 -3 -11 -9 -16 -10 -11 -2 4 7 2 12 -5 12 -8 0
-8 4 1 15 10 12 15 13 20 4 6 -8 9 -8 13 2 3 8 6 4 6 -9 1 -13 5 -21 10 -18 5
3 12 -1 15 -10 9 -24 7 -36 -6 -28 -7 4 -8 3 -4 -5 10 -15 26 -5 27 17 0 11 5
7 13 -11 7 -15 15 -24 19 -21 4 4 7 0 7 -9 0 -11 -5 -14 -17 -10 -10 3 -15 3
-11 -1 3 -4 12 -8 20 -10 7 -1 20 -5 28 -10 12 -7 13 -6 3 5 -7 7 -13 20 -13
28 0 9 9 0 19 -19 11 -19 24 -34 31 -32 6 1 9 -1 7 -5 -6 -9 18 -34 26 -27 2
3 3 -6 2 -19 -2 -20 1 -24 16 -20 14 4 23 -3 35 -28 9 -20 13 -24 10 -11 -6
30 1 28 19 -8 9 -18 21 -28 27 -24 7 4 8 3 4 -4 -4 -7 -2 -12 4 -12 6 0 8 -4
5 -10 -3 -6 4 -10 17 -10 18 0 20 -2 8 -10 -12 -8 -12 -10 5 -10 17 0 17 -2 5
-10 -8 -5 -10 -10 -4 -10 6 0 11 -7 11 -15 0 -8 -5 -11 -10 -8 -6 4 -8 0 -4
-10 4 -10 2 -14 -7 -11 -7 3 -32 -17 -55 -43 -56 -64 -61 -70 -55 -76 3 -3 -3
-4 -12 -3 -10 0 -27 -13 -38 -31 -12 -18 -25 -32 -29 -33 -5 0 -5 4 -2 10 3 6
-1 7 -10 4 -14 -6 -14 -8 2 -20 17 -12 16 -13 -4 -9 -16 3 -20 0 -16 -11 3 -8
-4 -17 -18 -23 -28 -11 -93 -78 -103 -105 -3 -10 -12 -16 -20 -13 -11 4 -14 0
-11 -16 4 -20 3 -21 -9 -4 -12 16 -14 16 -20 2 -3 -9 -2 -13 4 -10 6 3 10 3
10 -2 -1 -4 -15 -17 -33 -29 -18 -11 -31 -28 -31 -37 2 -14 -1 -15 -11 -7 -10
8 -15 8 -21 -1 -4 -8 -3 -9 4 -5 7 4 12 2 12 -3 0 -6 -5 -11 -10 -11 -16 0
-100 -81 -100 -95 0 -7 -16 -22 -35 -34 -19 -11 -40 -32 -45 -47 -7 -17 -15
-24 -26 -20 -8 3 -12 1 -9 -4 6 -10 -15 -33 -60 -63 -17 -12 -24 -25 -20 -34
4 -13 3 -14 -9 -4 -11 9 -16 9 -22 0 -4 -8 -3 -9 4 -5 7 4 12 2 12 -3 0 -6 -5
-11 -10 -11 -16 0 -100 -81 -100 -97 0 -7 -11 -18 -25 -23 -14 -5 -34 -23 -43
-40 -9 -16 -21 -30 -25 -30 -5 0 -5 4 -2 10 3 6 -1 7 -10 4 -14 -6 -14 -8 2
-20 17 -12 16 -13 -4 -9 -16 3 -20 0 -16 -11 5 -14 -34 -36 -50 -27 -4 2 -6 1
-5 -4 4 -15 -32 -73 -46 -73 -15 0 -96 -84 -96 -100 0 -5 -5 -10 -11 -10 -5 0
-7 5 -3 12 4 7 3 8 -5 4 -9 -6 -9 -11 -1 -21 8 -10 7 -13 -7 -11 -9 0 -26 -13
-37 -31 -12 -18 -25 -32 -29 -33 -5 0 -5 4 -2 10 3 6 -1 7 -10 4 -14 -6 -14
-8 2 -20 17 -12 16 -13 -4 -9 -16 3 -20 0 -16 -11 5 -14 -34 -36 -50 -27 -4 2
-6 1 -5 -4 4 -15 -32 -73 -46 -73 -15 0 -96 -84 -96 -100 0 -5 -5 -10 -11 -10
-5 0 -7 6 -3 13 5 8 2 7 -9 -2 -10 -8 -15 -16 -13 -19 9 -8 -14 -42 -28 -42
-15 0 -96 -84 -96 -100 0 -5 -5 -10 -11 -10 -5 0 -7 5 -3 12 4 7 3 8 -5 4 -9
-6 -9 -11 -1 -21 8 -10 7 -13 -7 -11 -9 0 -26 -13 -37 -31 -12 -18 -25 -32
-29 -33 -5 0 -5 4 -2 10 3 6 -1 7 -10 4 -14 -6 -14 -8 2 -20 17 -12 16 -13 -4
-9 -16 3 -20 0 -16 -11 3 -8 -4 -17 -19 -23 -25 -10 -98 -84 -98 -101 0 -6 -5
-10 -11 -10 -5 0 -7 4 -4 10 3 6 -1 7 -10 4 -14 -6 -14 -8 2 -20 17 -12 16
-13 -4 -9 -13 2 -26 -1 -29 -7 -4 -7 -2 -8 4 -4 7 4 12 2 12 -4 0 -12 -41 -30
-53 -23 -4 2 -6 1 -5 -4 4 -14 -32 -73 -45 -73 -15 0 -80 -65 -96 -97 -7 -13
-17 -23 -23 -23 -6 0 -5 7 3 18 13 15 12 16 -3 3 -10 -7 -15 -17 -13 -22 9
-13 -35 -51 -51 -45 -8 3 -13 2 -10 -3 3 -4 -9 -21 -25 -37 -17 -16 -35 -40
-40 -53 -6 -14 -15 -21 -24 -18 -10 4 -12 1 -8 -10 5 -12 2 -15 -10 -10 -11 4
-15 1 -12 -13 5 -24 -20 -47 -31 -29 -5 8 -3 9 6 4 9 -6 11 -4 5 5 -6 9 -4 11
5 5 9 -5 11 -4 6 4 -6 9 -11 9 -22 0 -7 -6 -11 -16 -7 -22 4 -6 0 -8 -9 -5
-11 5 -14 0 -12 -20 3 -26 2 -26 -13 -7 -13 16 -15 17 -10 3 4 -10 2 -18 -3
-18 -5 0 -2 -9 7 -19 9 -11 20 -18 24 -15 4 2 197 4 428 4 296 0 421 4 421 11
0 6 7 8 16 5 15 -6 15 -4 3 11 -8 9 -9 14 -3 10 6 -3 20 1 30 9 10 9 13 12 5
8 -9 -5 -12 -3 -7 4 4 7 14 12 22 12 9 0 12 5 8 12 -5 7 -2 9 9 5 11 -4 15 -1
12 13 -2 11 1 23 7 26 7 4 8 2 4 -4 -4 -7 -2 -12 3 -12 11 0 15 15 12 34 -1 5
5 3 14 -4 13 -11 15 -10 9 4 -4 10 -1 16 9 16 9 0 19 5 23 12 5 7 3 8 -6 3 -9
-5 -11 -4 -6 3 4 7 14 12 22 12 9 0 12 5 8 12 -5 7 -2 9 8 5 10 -3 15 0 14 11
-1 11 6 16 17 16 14 -2 15 1 6 12 -10 12 -6 17 11 16 3 0 17 9 30 20 14 11 19
16 11 12 -9 -5 -12 -3 -7 4 4 7 14 12 22 12 9 0 12 5 8 12 -5 7 -2 9 8 6 11
-5 15 0 14 15 -1 15 4 21 16 19 9 -1 20 3 24 9 5 8 3 9 -6 4 -9 -5 -11 -4 -6
3 4 7 14 12 22 12 8 0 14 5 14 11 0 5 4 8 9 4 6 -3 8 3 6 15 -2 11 1 23 7 26
7 4 8 2 4 -4 -4 -7 -2 -12 3 -12 11 0 15 15 12 34 -1 5 5 3 14 -4 13 -11 15
-10 9 4 -4 10 -1 16 9 16 9 0 19 5 23 12 5 7 3 8 -6 3 -9 -5 -11 -4 -6 3 4 7
14 12 22 12 9 0 12 5 8 12 -5 7 -2 9 8 5 10 -3 15 0 14 11 -1 11 6 16 17 16
14 -2 15 1 7 12 -9 10 -4 16 24 28 20 8 36 18 36 21 0 3 -5 3 -12 -1 -7 -4 -8
-3 -4 4 4 7 14 12 22 12 9 0 12 5 8 12 -5 7 -2 9 8 6 11 -5 15 0 14 15 -1 16
5 22 20 21 13 0 21 6 20 15 -1 10 6 15 17 15 14 -2 15 1 6 12 -10 12 -6 17 11
16 3 0 17 9 30 20 14 11 19 16 11 12 -9 -5 -12 -3 -7 4 4 7 14 12 22 12 9 0
12 5 8 12 -5 7 -2 9 8 6 11 -5 15 0 14 15 -1 15 4 21 16 19 9 -1 20 3 24 9 5
8 3 9 -6 4 -9 -5 -11 -4 -6 3 4 7 14 12 22 12 9 0 12 5 8 12 -5 7 -2 9 9 5 11
-4 15 -1 12 13 -3 14 1 17 12 13 12 -5 14 -3 8 7 -6 10 -4 12 8 7 11 -4 14 -2
11 8 -9 23 5 38 22 24 12 -10 13 -9 8 4 -4 11 4 21 25 32 17 8 31 18 31 21 0
3 -5 2 -12 -2 -7 -4 -8 -3 -4 4 4 7 14 12 22 12 9 0 12 5 8 12 -5 7 -2 9 9 5
11 -4 15 -1 12 13 -2 11 1 23 7 26 7 4 8 2 4 -4 -4 -7 -2 -12 3 -12 6 0 11 4
11 10 0 5 6 9 13 7 6 -1 11 6 9 15 -2 11 3 18 12 18 8 0 18 5 22 12 5 7 3 8
-6 3 -9 -5 -11 -4 -6 3 4 7 14 12 22 12 9 0 12 5 8 12 -5 7 -2 9 8 5 10 -3 15
0 14 11 -1 10 6 16 16 16 10 -1 15 3 11 9 -4 6 0 8 9 5 8 -4 15 -1 15 7 0 7
-7 11 -16 9 -9 -2 -1 3 17 11 17 8 32 18 32 21 0 3 -5 2 -12 -2 -7 -4 -8 -3
-4 4 4 7 14 12 22 12 9 0 12 5 8 12 -5 7 -2 9 8 6 10 -4 14 0 14 16 -1 15 5
21 20 20 13 0 21 6 20 15 -1 9 6 15 16 15 10 -1 15 3 11 9 -4 7 1 8 13 4 18
-7 18 -7 0 8 -15 11 -16 15 -5 15 8 0 24 7 35 16 10 8 13 12 5 8 -9 -5 -12 -3
-7 4 4 7 14 12 22 12 8 0 14 5 14 11 0 5 4 8 9 5 4 -3 8 4 7 17 -1 15 4 21 16
19 9 -1 20 3 24 9 5 8 3 9 -6 4 -9 -5 -11 -4 -6 3 4 7 14 12 22 12 9 0 12 5 8
12 -5 7 -2 9 8 5 11 -4 15 0 13 11 -4 24 23 51 45 47 14 -3 17 1 13 12 -4 11
-2 14 5 9 7 -4 12 -1 12 8 0 8 5 18 12 22 7 4 8 3 4 -4 -4 -7 -5 -12 -2 -12 3
0 13 15 21 32 8 18 13 26 11 17 -2 -9 2 -16 9 -16 8 0 11 7 7 15 -4 11 -2 13
9 7 11 -7 12 -6 2 7 -14 17 -8 29 12 22 7 -3 16 0 21 7 5 8 3 10 -7 5 -10 -6
-10 -4 1 6 8 8 21 20 29 28 11 12 12 12 6 1 -5 -9 -4 -12 3 -7 7 4 12 14 12
22 0 9 7 14 18 12 9 -2 16 3 15 9 -2 7 2 13 7 13 6 0 10 5 10 11 0 5 -5 7 -12
3 -6 -4 -8 -3 -4 4 3 6 15 9 26 7 14 -3 17 1 13 12 -4 11 -2 14 5 9 7 -4 12
-1 12 8 0 8 5 18 12 22 7 5 9 2 4 -7 -4 -8 1 -3 12 11 11 13 20 27 20 30 -1
17 4 21 16 11 11 -9 14 -8 12 6 0 12 5 17 17 17 10 -1 16 0 13 4 -3 3 2 11 12
19 16 14 16 14 -1 9 -11 -4 -16 -2 -11 5 3 6 14 9 24 6 14 -3 17 -1 13 11 -4
10 -2 13 5 8 7 -4 12 -1 12 8 0 8 5 18 12 22 7 5 8 3 3 -6 -5 -9 -4 -11 4 -6
6 4 10 15 9 24 -2 12 4 17 19 16 15 -1 20 3 15 14 -3 10 -1 13 6 8 7 -4 12 -1
12 8 0 8 5 18 12 22 7 4 8 3 4 -4 -4 -7 -4 -12 -1 -12 3 0 13 16 21 36 12 28
18 33 28 24 11 -8 14 -7 12 7 0 11 5 18 16 17 11 -1 14 4 11 14 -4 10 -2 13 5
8 7 -4 12 -1 12 8 0 8 5 18 12 22 7 5 8 3 3 -6 -5 -9 -4 -11 3 -6 7 4 12 14
12 23 0 10 6 13 16 9 14 -5 15 -4 4 9 -11 13 -10 14 5 9 14 -6 16 -4 10 6 -6
10 -4 12 7 7 10 -3 15 0 14 11 -1 11 6 16 17 16 14 -2 15 1 6 12 -10 12 -6 17
11 16 3 0 17 9 30 20 14 11 19 16 11 12 -9 -5 -12 -3 -7 4 4 7 14 12 22 12 9
0 12 5 8 12 -5 7 -2 9 8 5 12 -4 15 0 11 16 -3 13 -1 18 4 11 5 -8 14 -5 28 9
11 11 14 16 6 12 -9 -5 -12 -4 -7 3 4 7 14 12 22 12 9 0 12 5 8 12 -5 7 -2 9
9 5 11 -4 15 -1 12 13 -2 11 1 23 7 26 7 4 8 2 4 -4 -4 -7 -2 -12 3 -12 6 0
11 5 11 11 0 5 6 7 13 4 6 -4 1 3 -12 14 -20 18 -21 21 -5 21 9 0 14 3 10 7
-4 5 -11 8 -16 8 -10 0 -50 45 -50 57 0 4 -7 8 -15 8 -8 0 -15 4 -15 8 0 5 -7
17 -15 28 -15 19 -15 19 -9 -1 l6 -20 -15 20 c-30 39 -182 190 -192 190 -5 0
-9 8 -7 18 2 9 -1 16 -6 15 -11 -3 -52 40 -52 54 0 4 -7 8 -15 8 -8 0 -15 5
-15 11 0 5 -4 7 -10 4 -5 -3 -7 0 -4 8 3 8 0 18 -7 23 -8 5 -10 3 -4 -7 5 -8
-3 -2 -18 14 -14 15 -31 27 -37 27 -6 0 -8 5 -5 10 3 6 -1 13 -9 16 -9 3 -16
12 -16 19 0 8 -9 17 -21 20 -21 7 -21 26 1 33 7 3 10 0 6 -7 -4 -6 -3 -11 3
-11 5 0 12 6 15 13 3 6 4 3 3 -8 -1 -11 4 -20 13 -20 8 0 17 -9 20 -21 3 -13
12 -20 22 -18 10 1 17 -1 17 -4 -1 -4 -1 -16 0 -27 1 -17 3 -18 11 -5 8 13 10
12 10 -3 0 -11 4 -15 12 -11 7 4 8 3 4 -4 -4 -7 -1 -12 8 -12 9 0 16 -7 16
-16 0 -9 5 -12 12 -8 7 4 8 3 4 -4 -4 -7 -1 -12 10 -12 14 0 14 -3 4 -15 -11
-13 -10 -14 3 -10 8 4 18 1 22 -4 3 -6 11 -9 16 -6 5 4 6 -2 2 -11 -5 -13 -3
-16 10 -11 9 3 16 3 16 -1 -4 -22 2 -42 10 -37 5 3 13 0 17 -6 4 -8 3 -9 -4
-5 -7 4 -12 2 -12 -5 0 -6 8 -9 19 -6 16 4 54 -25 56 -43 0 -3 3 -4 6 -3 7 2
44 -36 44 -46 0 -3 6 -5 12 -5 7 1 11 -2 8 -6 -3 -5 -1 -12 5 -15 8 -5 7 -12
-2 -23 -12 -13 -10 -14 9 -4 22 12 40 2 29 -16 -2 -4 0 -14 6 -22 8 -12 9 -12
4 3 -3 9 -1 17 4 17 6 0 10 -6 10 -14 0 -7 8 -20 17 -27 14 -12 16 -12 9 1 -5
8 3 3 16 -12 14 -15 28 -24 32 -21 4 4 4 0 0 -10 -3 -9 -2 -17 2 -18 5 0 17
-2 27 -4 16 -3 17 24 17 446 0 341 -3 448 -12 443 -8 -5 -9 -2 -5 10 5 11 3
15 -5 10 -8 -5 -9 -2 -5 9 3 9 1 19 -5 23 -7 4 -8 3 -4 -4 4 -7 3 -12 -3 -12
-5 0 -13 9 -16 20 -4 11 -15 20 -27 20 -18 0 -19 2 -7 17 10 11 10 14 2 9 -8
-4 -13 -2 -13 4 0 7 -7 10 -15 7 -8 -4 -17 -1 -21 5 -4 7 -3 8 4 4 7 -4 12 -3
12 3 0 5 -8 12 -17 16 -10 3 -29 14 -42 25 -20 18 -22 22 -10 38 13 15 12 16
-2 4 -14 -11 -20 -9 -37 12 -10 14 -23 22 -28 18 -5 -4 -3 1 4 10 12 14 10 16
-10 10 -21 -5 -22 -4 -9 11 12 15 12 17 -4 10 -15 -5 -17 -3 -11 12 4 11 4 16
0 13 -4 -4 -15 4 -26 17 -11 14 -25 22 -33 18 -18 -6 -20 13 -2 21 6 4 2 4
-10 2 -16 -3 -21 1 -18 15 3 12 -1 16 -11 12 -8 -3 -14 1 -14 10 0 8 -9 17
-20 20 -11 3 -20 13 -20 22 0 11 -5 15 -16 11 -8 -3 -12 -2 -9 4 3 6 1 10 -4
10 -6 0 -11 5 -11 11 0 5 5 7 12 3 7 -4 8 -3 4 5 -6 9 -11 9 -24 -1 -12 -10
-14 -10 -8 0 4 7 2 12 -4 12 -7 0 -10 7 -7 14 4 11 1 13 -10 9 -13 -5 -15 -2
-10 11 4 10 3 15 -3 11 -6 -3 -10 -1 -10 5 0 7 -7 10 -15 7 -17 -7 -30 9 -15
18 14 9 3 25 -13 19 -18 -7 -61 41 -51 58 5 9 2 8 -11 -2 -11 -9 -16 -10 -11
-2 4 7 2 12 -4 12 -6 0 -9 3 -7 8 3 4 -1 12 -8 19 -11 10 -15 10 -18 0 -3 -7
-6 -2 -6 10 -1 11 -14 32 -30 46 -17 14 -27 29 -23 33 4 5 -1 2 -10 -5 -16
-12 -18 -11 -18 8 0 12 -4 19 -10 16 -5 -3 -10 -1 -10 5 0 6 -5 8 -12 4 -10
-6 -10 -4 0 8 10 13 10 18 1 24 -8 4 -9 3 -5 -4 4 -7 2 -12 -3 -12 -6 0 -11 5
-11 11 0 5 -4 7 -10 4 -6 -3 -7 1 -4 9 4 11 0 16 -15 16 -13 0 -21 6 -21 18 0
14 2 15 10 2 5 -8 10 -10 10 -4 0 19 -13 24 -28 11 -13 -9 -14 -9 -8 1 4 6 3
12 -1 12 -17 0 -94 84 -89 96 3 9 -1 11 -11 7 -13 -5 -15 -2 -10 11 4 10 3 15
-3 11 -6 -3 -10 -1 -10 5 0 7 -6 10 -14 7 -20 -8 -28 4 -13 21 9 13 9 14 0 8
-8 -4 -13 -2 -13 4 0 7 -7 10 -15 7 -8 -4 -17 -1 -21 5 -4 7 -3 8 4 4 7 -4 12
-3 12 3 0 5 -9 12 -19 16 -11 3 -25 13 -32 23 -11 14 -11 15 1 5 8 -7 18 -13
24 -13 5 0 1 6 -9 14 -11 8 -25 12 -32 9 -7 -3 -13 2 -13 12 0 10 5 13 12 9 7
-4 8 -3 4 5 -6 9 -11 9 -21 1 -11 -9 -13 -8 -10 9 2 14 -1 18 -11 14 -8 -3
-14 1 -14 11 0 9 -7 16 -16 16 -9 0 -18 9 -21 21 -4 12 -11 18 -20 15 -8 -3
-12 -2 -10 2 7 10 -19 32 -29 24 -5 -4 -2 1 5 11 12 15 12 17 -4 11 -13 -5
-16 -4 -11 4 4 7 2 12 -4 12 -6 0 -8 4 -5 10 3 6 -1 7 -9 4 -11 -4 -16 0 -16
11 0 10 -5 13 -12 9 -8 -5 -9 -2 -4 11 6 16 4 16 -11 4 -10 -7 -15 -10 -11 -5
4 5 -4 18 -18 28 -21 17 -23 23 -12 37 12 14 11 15 -5 2 -9 -8 -19 -12 -20
-10 -1 2 -11 15 -22 29 l-20 25 21 -17 c11 -10 24 -18 29 -18 4 0 -5 10 -21
22 -16 13 -30 26 -32 30 -2 5 -8 8 -13 8 -6 0 -7 -5 -3 -12 4 -7 3 -8 -4 -4
-6 4 -9 13 -5 21 3 8 0 15 -7 15 -6 0 -8 5 -4 13 5 7 0 6 -11 -3 -11 -9 -16
-10 -11 -2 5 8 1 12 -11 12 -15 0 -16 2 -3 10 11 7 11 10 2 10 -7 0 -10 4 -7
10 3 6 -1 7 -9 4 -11 -4 -16 0 -16 11 0 10 -5 13 -12 9 -8 -5 -9 -2 -4 11 6
16 4 16 -11 4 -9 -8 -14 -9 -11 -4 7 12 -17 37 -26 27 -4 -3 -4 1 0 11 4 12 1
17 -11 17 -9 0 -19 9 -22 20 -3 11 -12 20 -19 20 -8 0 -17 7 -20 15 -3 8 -13
17 -22 20 -10 3 -26 18 -36 33 l-20 27 21 -18 c16 -14 23 -15 29 -6 4 7 3 10
-3 6 -5 -3 -21 5 -36 19 -27 25 -43 32 -32 14 16 -26 -6 -6 -30 28 -27 37 -27
37 -1 9 14 -15 26 -24 26 -18 0 5 -13 20 -29 34 -17 14 -27 29 -23 33 4 5 -1
2 -10 -5 -16 -12 -18 -11 -18 4 0 24 -29 55 -45 49 -7 -3 -16 3 -19 14 -4 11
-13 23 -21 26 -8 3 -15 12 -15 21 0 8 -7 15 -16 15 -9 0 -18 9 -21 21 -4 12
-11 18 -20 15 -8 -3 -11 -1 -8 4 3 6 1 10 -4 10 -6 0 -11 5 -11 11 0 5 5 7 12
3 7 -4 8 -3 4 5 -6 9 -11 9 -24 -1 -12 -10 -14 -10 -8 0 4 7 2 12 -4 12 -7 0
-10 7 -7 14 4 11 1 13 -10 9 -13 -5 -15 -2 -10 11 4 10 3 15 -3 11 -6 -3 -10
-1 -10 5 0 7 -6 10 -14 7 -20 -8 -28 4 -13 21 9 13 9 14 0 8 -8 -4 -13 -2 -13
4 0 7 -9 9 -22 5 -19 -5 -20 -4 -8 5 11 9 12 13 3 17 -7 2 -21 12 -31 21 -9 9
-13 14 -8 10 6 -5 14 -8 20 -8 5 0 1 6 -9 14 -11 8 -25 12 -31 9 -7 -2 -15 4
-18 15 -4 11 -13 23 -21 26 -8 3 -15 12 -15 20 0 7 -9 16 -20 19 -11 3 -20 13
-20 22 0 12 -5 15 -17 11 -10 -4 -14 -4 -11 0 4 3 -4 16 -17 29 -14 12 -22 25
-18 28 3 4 -2 7 -11 7 -12 0 -16 5 -12 16 3 8 2 12 -4 9 -6 -3 -10 -1 -10 5 0
7 -6 10 -14 7 -20 -8 -28 4 -13 21 9 13 9 14 0 8 -7 -4 -13 -2 -13 3 0 6 -7
11 -16 11 -8 0 -12 5 -9 10 3 6 3 10 -2 11 -4 0 -18 2 -30 3 -13 2 -19 -2 -16
-7 4 -6 0 -8 -9 -5 -8 4 -21 2 -29 -4 -11 -8 -10 -9 4 -4 9 3 17 1 17 -4 0 -6
-5 -10 -11 -10 -5 0 -8 -4 -5 -9 4 -5 -3 -7 -14 -4 -12 3 -20 0 -20 -6 0 -7 6
-9 13 -5 6 4 1 -5 -13 -20 -13 -14 -30 -24 -37 -22 -7 3 -10 -1 -6 -10 3 -9
-1 -14 -13 -14 -11 0 -26 -5 -34 -11 -12 -8 -9 -9 10 -4 23 5 23 5 8 -8 -10
-8 -14 -18 -10 -23 4 -4 -2 -2 -12 6 -14 11 -18 11 -12 2 5 -9 1 -15 -14 -19
-16 -4 -18 -8 -8 -14 9 -6 7 -9 -9 -9 -12 0 -25 -4 -28 -10 -4 -6 1 -7 11 -3
11 4 4 -8 -16 -30 -18 -20 -37 -34 -41 -31 -5 3 -9 -2 -9 -11 0 -11 -5 -15
-14 -12 -9 4 -13 1 -10 -6 2 -7 -8 -24 -22 -37 -15 -14 -24 -20 -20 -13 3 6 2
14 -3 17 -5 4 -8 -5 -6 -19 2 -20 0 -23 -12 -14 -11 9 -12 9 -8 -4 4 -8 1 -18
-6 -23 -7 -4 -10 -3 -5 4 3 6 2 14 -4 17 -6 4 -10 3 -9 -2 5 -26 -2 -45 -15
-40 -20 8 -28 -4 -14 -20 9 -11 7 -12 -7 -7 -12 5 -16 4 -12 -3 4 -6 -10 -25
-30 -43 -22 -20 -34 -27 -30 -16 4 10 3 15 -3 11 -6 -3 -10 -15 -10 -26 0 -11
-4 -18 -9 -15 -5 3 -12 -1 -15 -10 -3 -9 -11 -12 -18 -8 -8 5 -8 1 2 -12 8
-10 10 -16 6 -12 -5 4 -15 0 -23 -10 -14 -16 -14 -16 -9 1 3 11 2 16 -4 12 -6
-3 -10 -15 -10 -27 0 -13 -5 -18 -14 -15 -9 4 -13 1 -10 -6 2 -7 -8 -24 -22
-37 -15 -14 -24 -20 -20 -13 3 6 2 14 -3 17 -5 4 -8 -5 -6 -19 2 -20 0 -23
-12 -14 -11 9 -12 9 -8 -4 4 -8 1 -18 -6 -23 -7 -4 -10 -3 -5 4 3 6 2 14 -4
17 -6 4 -10 3 -9 -2 5 -26 -2 -45 -15 -40 -20 8 -28 -4 -14 -20 9 -11 7 -12
-7 -7 -12 5 -16 4 -12 -3 4 -6 -10 -25 -30 -43 -22 -20 -34 -27 -30 -16 4 10
3 15 -3 11 -6 -3 -10 -16 -10 -27 0 -12 -3 -18 -7 -14 -4 3 -13 -6 -20 -21 -7
-16 -11 -20 -8 -10 2 9 0 17 -5 17 -6 0 -10 -12 -11 -27 0 -16 -3 -22 -6 -15
-2 6 -9 12 -14 12 -6 0 -8 -4 -5 -9 3 -5 -3 -11 -14 -14 -13 -3 -18 -10 -14
-21 6 -15 -11 -22 -39 -17 -5 1 -6 -3 -2 -9 3 -6 11 -7 17 -4 7 4 8 2 4 -5 -4
-6 -15 -10 -24 -9 -10 2 -16 -3 -14 -11 4 -18 -39 -63 -55 -57 -7 3 -10 -1 -6
-10 3 -9 -2 -14 -15 -14 -12 0 -24 -4 -27 -10 -4 -6 1 -7 12 -3 14 4 15 3 7
-6 -6 -7 -20 -13 -32 -14 -11 0 -19 -5 -16 -9 3 -4 12 -5 22 -2 9 2 5 -2 -11
-9 -15 -7 -24 -16 -21 -20 4 -4 -2 -7 -14 -7 -11 0 -24 -4 -27 -10 -4 -6 1 -7
12 -3 10 3 2 -10 -18 -30 -20 -20 -35 -38 -33 -40 2 -2 -6 -3 -19 -3 -16 1
-21 -4 -19 -16 3 -16 -14 -24 -41 -19 -5 1 -6 -3 -2 -9 3 -6 12 -8 18 -4 7 3
4 -1 -5 -9 -10 -8 -14 -18 -10 -23 4 -4 -1 -2 -11 5 -15 12 -17 12 -12 -1 7
-17 -39 -63 -54 -54 -7 4 -8 1 -5 -8 4 -11 0 -16 -15 -16 -12 0 -21 -5 -21
-11 0 -5 6 -7 13 -3 9 5 9 4 1 -5 -6 -7 -20 -13 -32 -14 -11 0 -19 -5 -16 -9
3 -4 12 -5 22 -2 9 2 5 -2 -11 -9 -15 -7 -24 -16 -21 -20 4 -4 -2 -7 -14 -7
-11 0 -24 -4 -27 -10 -4 -6 1 -7 11 -3 11 4 4 -8 -16 -30 -18 -20 -37 -34 -41
-31 -5 3 -9 -2 -9 -11 0 -11 -5 -15 -16 -11 -9 3 -12 2 -8 -5 11 -18 -37 -60
-60 -53 -18 5 -19 4 -6 -7 8 -8 13 -13 11 -12 -2 2 -10 -5 -18 -15 -8 -9 -12
-12 -9 -5 4 6 2 15 -4 18 -6 4 -10 3 -9 -2 5 -28 -2 -45 -17 -39 -13 5 -15 2
-11 -13 3 -15 1 -18 -11 -14 -9 4 -13 2 -9 -4 4 -6 -10 -25 -30 -43 -22 -20
-34 -27 -30 -16 4 10 3 15 -3 11 -6 -3 -10 -16 -10 -27 0 -12 -3 -18 -7 -14
-4 3 -13 -6 -20 -21 -7 -16 -11 -20 -9 -11 3 10 2 19 -2 22 -4 3 -9 -5 -9 -16
-1 -12 -7 -26 -14 -32 -9 -8 -10 -8 -5 1 3 6 2 15 -4 18 -6 4 -10 3 -9 -2 5
-29 -2 -45 -17 -39 -14 6 -15 4 -4 -9 7 -9 9 -15 4 -14 -5 1 -18 1 -29 0 -15
-1 -16 -4 -7 -10 10 -6 10 -10 -1 -20 -8 -6 -21 -10 -28 -9 -8 2 -13 -4 -11
-14 1 -9 -3 -20 -9 -24 -7 -4 -9 -3 -5 4 3 6 1 14 -5 18 -7 4 -10 3 -7 -2 9
-15 -11 -56 -24 -48 -8 5 -9 2 -4 -11 5 -15 4 -16 -9 -5 -13 11 -15 10 -10 -2
3 -8 -9 -28 -31 -48 -22 -20 -35 -27 -31 -16 4 10 3 15 -3 11 -6 -3 -10 -16
-10 -27 0 -12 -3 -18 -7 -14 -4 3 -13 -6 -20 -21 -7 -16 -11 -20 -9 -11 3 10
1 20 -5 23 -5 4 -9 3 -8 -2 1 -4 1 -16 0 -27 -1 -16 -3 -17 -18 -5 -15 13 -15
12 -5 -7 10 -19 9 -21 -13 -18 -14 1 -23 -2 -19 -7 3 -5 11 -6 17 -3 9 5 9 4
1 -5 -6 -7 -20 -13 -32 -14 -11 0 -19 -5 -16 -9 3 -4 12 -5 22 -2 9 2 4 -2
-13 -10 -16 -8 -25 -16 -20 -17 6 0 -1 -4 -15 -8 -16 -5 -24 -13 -22 -24 3
-15 -14 -23 -41 -18 -5 1 -6 -3 -2 -9 3 -6 12 -7 18 -3 7 4 6 -1 -2 -11 -8 -9
-21 -14 -29 -11 -12 4 -13 3 -2 -10 11 -13 10 -14 -5 -9 -13 5 -16 4 -11 -4 4
-8 -3 -16 -18 -22 -14 -5 -26 -12 -26 -15 0 -4 5 -3 10 0 6 3 10 4 10 1 0 -3
-10 -10 -21 -17 -17 -9 -20 -8 -14 2 5 8 4 10 -4 5 -9 -6 -9 -11 0 -22 7 -9 8
-14 3 -13 -22 4 -35 -2 -28 -13 5 -8 2 -9 -11 -4 -16 6 -16 4 -4 -11 12 -15
12 -16 -6 -10 -20 7 -20 7 -1 -8 20 -15 20 -15 0 -15 -15 0 -16 -2 -4 -9 8 -6
18 -7 24 -4 5 3 7 2 4 -3 -5 -10 27 -45 35 -38 2 3 7 -2 10 -10 4 -9 2 -18 -3
-21 -6 -4 -10 -11 -10 -16 0 -6 8 -3 17 7 16 16 18 15 27 -5 5 -11 16 -21 24
-21 9 0 12 -3 9 -6 -3 -4 5 -15 18 -26 14 -11 22 -25 18 -31 -4 -6 0 -8 10 -4
10 4 16 2 14 -6 -1 -7 5 -10 13 -9 8 2 12 1 8 -3 -8 -9 16 -35 32 -35 6 0 9
-4 6 -9 -4 -5 0 -11 6 -14 9 -3 8 -10 -6 -23 -10 -11 -16 -13 -12 -6 4 7 1 12
-7 12 -16 0 -30 27 -22 40 3 5 -3 7 -14 5 -11 -2 -22 3 -25 11 -4 10 -2 12 6
8 7 -4 8 -3 4 4 -4 7 -16 12 -28 12 -17 0 -18 2 -8 15 7 9 10 18 6 22 -3 3 -6
1 -6 -5 0 -19 -24 -14 -38 8 -7 11 -12 23 -11 27 0 5 -10 11 -23 14 -15 3 -23
12 -22 26 0 15 -4 19 -14 15 -10 -3 -13 -1 -8 6 4 7 2 13 -3 13 -6 1 -15 2
-20 3 -6 0 -16 7 -23 14 -11 11 -9 12 7 7 16 -5 16 -4 -3 7 -12 8 -19 17 -16
21 4 4 0 7 -10 7 -14 0 -15 3 -5 21 8 15 8 19 0 15 -6 -4 -11 -3 -11 3 0 5 14
15 30 23 16 7 30 17 30 21 0 5 -6 5 -13 1 -7 -4 -9 -3 -4 2 5 5 14 9 20 9 7 0
12 6 12 12 0 7 10 20 22 28 21 15 22 15 17 -2 -5 -15 -4 -15 4 -3 8 10 7 19
-1 29 -9 12 -9 13 1 7 6 -4 12 -2 12 3 0 6 5 10 12 9 7 -2 12 4 13 12 1 8 6
14 13 12 7 -1 12 3 12 9 0 17 43 47 63 44 9 -2 15 0 12 6 -4 5 -11 7 -16 4 -5
-4 -9 -1 -9 4 0 6 7 11 16 11 8 0 12 5 9 10 -4 6 -1 9 6 8 7 -2 13 4 14 12 1
8 6 14 13 12 7 -1 12 2 12 6 0 14 40 57 53 57 7 1 11 7 9 14 -1 7 2 10 8 6 5
-3 10 1 10 9 0 9 5 16 11 16 5 0 8 -4 4 -9 -3 -5 -1 -12 4 -16 6 -3 8 3 6 12
-3 20 27 63 44 63 6 0 10 5 9 12 -2 7 4 12 12 13 8 1 14 6 12 13 -1 7 3 12 9
12 5 0 7 6 3 13 -6 9 -4 9 8 -1 13 -10 18 -10 24 -1 5 8 3 9 -6 4 -8 -5 -7 1
3 16 10 13 22 25 27 25 6 1 14 2 19 3 6 0 16 13 23 29 7 15 18 26 23 25 13 -2
36 17 31 26 -7 11 12 36 26 36 7 1 12 7 10 14 -1 7 2 10 8 6 5 -3 10 1 10 9 0
9 5 16 11 16 5 0 8 -4 4 -9 -3 -5 -1 -12 4 -16 6 -3 8 3 6 12 -3 20 27 63 44
63 6 0 10 5 9 12 -2 7 4 12 12 13 8 1 14 6 13 12 -1 6 4 14 13 17 8 3 12 2 9
-4 -10 -16 1 -11 16 7 10 11 10 14 2 9 -7 -4 -13 -4 -13 -1 0 9 32 40 42 41 4
1 12 2 18 3 5 0 17 17 26 37 12 26 19 32 25 22 7 -10 9 -10 10 0 4 33 6 37 17
35 7 -2 12 2 12 8 0 17 43 47 63 44 9 -2 15 0 12 6 -4 5 -11 7 -16 4 -5 -4 -9
-1 -9 4 0 6 7 11 16 11 8 0 12 5 9 10 -4 6 -1 9 6 8 7 -2 14 4 14 12 0 8 6 14
13 13 7 -2 12 2 12 7 0 14 51 59 67 60 13 0 39 40 26 40 -4 0 3 9 15 20 22 21
37 27 27 10 -10 -16 1 -11 16 7 9 11 10 14 2 9 -9 -5 -11 -2 -7 8 3 9 11 14
17 13 6 -1 11 5 12 13 0 8 6 15 13 15 6 0 12 4 12 8 -1 15 44 45 63 42 9 -2
15 0 12 6 -4 5 -11 7 -16 4 -5 -4 -9 -1 -9 4 0 6 7 11 16 11 9 0 12 5 8 12 -4
7 -3 8 5 4 7 -4 15 2 20 16 4 13 11 22 15 21 3 -2 6 -1 6 2 -1 9 57 55 69 55
5 0 15 9 21 20 6 11 7 20 3 20 -4 0 3 9 15 20 24 23 37 26 26 8 -5 -9 -2 -9 9
1 19 15 23 26 6 16 -6 -4 -5 2 3 14 7 12 16 21 21 21 4 0 5 -5 1 -12 -4 -7 -3
-8 5 -4 6 4 9 12 6 17 -4 5 -1 9 5 9 6 0 9 4 6 9 -3 5 4 11 15 14 12 3 18 10
14 17 -4 6 -1 9 7 8 7 -2 12 3 10 11 -2 8 3 11 12 8 9 -4 15 -3 13 1 -3 10 26
49 38 51 6 0 10 7 10 14 0 6 7 12 15 12 8 1 14 6 13 12 -1 6 4 14 13 17 8 3
12 2 9 -4 -10 -16 1 -11 16 7 10 11 10 14 2 9 -20 -11 -15 2 8 27 19 20 20 21
13 2 -7 -20 -7 -20 9 0 8 11 13 23 11 27 -2 4 0 9 6 13 5 3 10 0 10 -7 0 -7 6
-2 13 12 8 14 19 24 26 22 6 -1 11 6 9 15 -2 10 3 18 10 18 6 0 12 5 13 10 0
6 9 13 20 17 11 4 17 12 14 18 -4 6 -1 9 7 8 7 -2 12 3 10 11 -2 8 3 11 12 8
9 -4 15 -3 13 1 -3 10 32 57 41 55 4 -2 7 3 7 10 0 6 7 12 15 12 8 1 14 6 13
12 -1 6 4 14 13 17 8 3 12 2 9 -4 -10 -16 1 -11 16 7 10 11 10 14 2 9 -20 -11
-15 2 8 27 19 20 20 21 13 2 -7 -20 -7 -20 9 0 8 11 13 23 11 27 -2 4 0 9 6
13 5 3 10 0 10 -7 0 -7 8 2 17 20 12 24 18 30 24 20 9 -13 9 -13 13 25 0 6 7
12 14 12 6 0 13 5 13 10 2 12 41 41 51 38 4 -2 5 4 1 13 -3 9 0 14 8 12 8 -2
13 3 11 10 -1 8 2 11 8 7 6 -3 14 4 19 17 4 13 12 23 17 23 5 0 8 3 7 7 -4 11
56 50 67 43 5 -3 10 -1 10 4 0 6 -5 11 -11 11 -5 0 -7 5 -4 10 4 6 10 8 15 5
4 -3 14 3 21 12 12 14 12 16 -1 8 -13 -8 -13 -6 -1 8 7 9 17 15 21 12 5 -3 12
0 16 6 3 6 0 15 -7 20 -8 5 -210 9 -449 8 -417 0 -436 -1 -459 -20z m1600
-646 c13 -16 12 -17 -3 -4 -10 7 -18 15 -18 17 0 8 8 3 21 -13z m-661 -291 c0
-5 -12 -14 -27 -21 l-28 -12 25 21 c29 22 30 23 30 12z m53 -10 c16 -13 12
-48 -6 -59 -5 -3 -7 -1 -3 5 3 6 2 13 -3 16 -5 4 -12 2 -16 -4 -3 -5 -12 -10
-18 -10 -7 0 -6 4 3 10 20 13 4 13 -20 0 -12 -7 -17 -16 -13 -27 5 -13 2 -15
-15 -11 -19 5 -20 4 -10 -15 10 -20 10 -21 -6 -8 -14 12 -16 12 -10 -3 4 -11
1 -16 -11 -16 -11 0 -15 -5 -12 -14 4 -10 1 -13 -7 -10 -8 3 -17 0 -21 -5 -3
-6 -11 -8 -17 -5 -7 4 -8 2 -4 -5 6 -9 12 -9 24 1 15 12 16 11 3 -5 -8 -10
-20 -16 -27 -13 -8 3 -11 0 -7 -10 3 -9 -1 -14 -12 -14 -11 0 -15 -5 -12 -14
4 -10 1 -13 -9 -9 -7 3 -14 0 -14 -7 0 -6 -5 -8 -12 -4 -8 5 -8 1 2 -12 8 -10
11 -16 6 -12 -14 12 -48 -12 -42 -29 5 -12 4 -13 -7 -5 -16 14 -28 6 -21 -13
3 -7 -4 -15 -15 -18 -12 -3 -21 -10 -21 -17 0 -6 5 -8 12 -4 7 4 8 3 4 -4 -4
-6 -13 -9 -21 -5 -10 3 -15 -1 -15 -11 0 -11 -7 -16 -17 -14 -12 2 -19 -5 -21
-20 -3 -16 -8 -22 -19 -18 -11 5 -14 1 -10 -13 3 -12 -1 -18 -12 -17 -11 1
-17 -9 -19 -32 -3 -26 1 -34 20 -41 23 -9 58 -45 58 -59 0 -5 11 -18 25 -30
14 -12 25 -19 25 -16 0 3 7 -2 17 -11 14 -14 14 -18 2 -26 -13 -8 -9 -10 16
-9 3 0 23 -20 45 -45 22 -26 40 -42 40 -37 0 4 -13 21 -30 37 -16 16 -30 32
-30 37 0 4 17 -11 38 -34 20 -24 40 -44 45 -46 4 -2 7 -8 7 -13 0 -6 -5 -7
-12 -3 -7 4 -8 3 -4 -4 4 -6 13 -9 21 -5 11 3 15 -2 15 -17 0 -20 2 -21 17 -9
9 8 14 9 10 2 -4 -6 -1 -18 7 -26 8 -8 12 -18 8 -23 -4 -5 1 -2 11 5 15 12 17
12 11 -5 -4 -10 -4 -16 0 -12 5 4 14 1 21 -5 10 -9 10 -15 1 -26 -9 -12 -8
-12 12 -2 12 6 22 8 21 4 -1 -4 -1 -16 0 -27 1 -16 3 -17 19 -5 9 7 14 10 10
5 -4 -4 6 -19 23 -33 16 -14 29 -29 29 -34 0 -6 -12 3 -26 18 l-25 28 22 -32
c18 -25 25 -30 36 -21 11 8 12 7 7 -6 -4 -11 -1 -16 11 -16 12 0 15 -5 11 -16
-5 -14 -4 -15 9 -4 13 11 14 10 9 -4 -4 -11 -1 -16 10 -16 10 0 16 -8 16 -21
0 -19 2 -20 17 -8 11 10 14 10 9 2 -4 -8 -2 -13 4 -13 6 0 8 -4 5 -10 -3 -5 1
-10 9 -10 9 0 16 -9 16 -21 0 -11 4 -17 11 -14 5 4 32 -14 59 -39 27 -25 46
-46 42 -46 -3 0 -27 19 -52 43 l-45 42 35 -40 c48 -54 63 -65 78 -60 7 3 10 0
7 -5 -3 -6 1 -13 9 -16 9 -3 13 -11 9 -17 -4 -6 0 -8 11 -4 9 4 15 3 12 -2 -3
-5 5 -17 19 -27 13 -10 22 -21 19 -26 -5 -7 11 -12 29 -9 5 1 6 -2 4 -6 -6
-11 19 -34 27 -25 4 3 4 -1 1 -11 -5 -12 0 -19 19 -27 14 -5 26 -14 26 -20 0
-18 49 -62 62 -54 7 4 8 3 4 -4 -4 -7 -2 -12 4 -12 6 0 8 -5 4 -12 -5 -8 -2
-9 9 -5 10 3 17 2 17 -2 0 -5 -6 -12 -12 -14 -13 -5 18 -11 37 -7 5 1 7 -2 3
-6 -4 -4 0 -13 10 -21 9 -8 11 -11 3 -7 -10 5 -12 3 -7 -5 5 -7 15 -10 23 -7
8 3 12 2 10 -2 -7 -10 19 -32 29 -24 4 4 4 2 1 -4 -4 -6 1 -20 9 -30 9 -10 13
-13 9 -7 -4 8 -1 11 9 7 8 -3 13 -14 11 -26 -4 -16 -2 -18 10 -8 12 10 15 9
15 -8 0 -11 8 -26 18 -33 15 -12 16 -12 7 1 -6 10 -4 9 6 -2 9 -9 20 -14 24
-10 5 4 5 2 1 -5 -3 -6 -2 -14 4 -18 6 -4 7 -12 3 -18 -4 -7 1 -6 10 2 15 12
17 12 11 -4 -5 -13 -4 -16 4 -11 7 4 12 2 12 -4 0 -6 4 -9 9 -6 5 3 8 -2 7
-12 -1 -11 6 -16 17 -16 10 1 16 0 13 -3 -7 -7 18 -32 27 -26 4 2 7 1 6 -4 -3
-20 2 -34 11 -28 6 3 10 1 10 -5 0 -6 5 -8 12 -4 6 4 8 3 4 -4 -3 -6 -2 -13 4
-17 6 -4 7 -12 3 -18 -4 -7 1 -6 10 2 15 12 17 12 11 -4 -5 -13 -4 -16 4 -11
7 4 12 2 12 -4 0 -6 5 -8 12 -4 7 4 8 3 4 -4 -8 -13 36 -62 54 -62 6 0 15 -12
20 -26 8 -19 15 -24 27 -19 10 3 14 3 11 -1 -9 -9 15 -33 26 -26 5 3 6 1 3 -5
-7 -12 28 -44 39 -35 5 4 2 -1 -5 -10 -20 -26 -31 -23 -72 22 -27 29 -42 38
-55 33 -13 -5 -15 -3 -9 7 5 9 4 11 -4 6 -6 -4 -9 -12 -6 -17 6 -8 -8 -13 -27
-10 -4 0 -5 -6 -2 -14 4 -8 -1 -17 -10 -21 -9 -3 -13 -11 -9 -18 4 -6 0 -6 -9
2 -13 10 -18 10 -24 1 -4 -8 -3 -9 4 -5 16 10 15 -2 -2 -19 -7 -8 -17 -11 -21
-7 -4 4 -5 -4 -1 -18 3 -14 3 -19 0 -12 -3 6 -10 12 -15 12 -6 0 -7 -4 -4 -10
3 -5 1 -10 -5 -10 -6 0 -8 -5 -4 -12 6 -10 4 -10 -8 0 -13 10 -18 10 -24 1 -4
-8 -3 -9 4 -5 16 10 15 -2 -2 -19 -7 -8 -17 -11 -21 -7 -5 4 -5 -1 -2 -11 4
-11 3 -16 -3 -12 -6 3 -13 -1 -16 -9 -3 -9 -11 -13 -16 -10 -6 4 -8 -3 -4 -17
3 -13 3 -18 0 -11 -8 18 -27 15 -20 -4 3 -8 2 -12 -4 -9 -6 3 -10 1 -10 -5 0
-6 -4 -9 -9 -5 -5 3 -12 -4 -16 -15 -4 -11 -11 -17 -17 -14 -7 5 -9 1 -5 -9 6
-16 -15 -41 -26 -30 -4 3 -7 1 -7 -5 0 -7 -3 -11 -7 -11 -20 3 -24 -2 -13 -16
11 -13 10 -14 -5 -9 -14 6 -16 4 -10 -7 7 -12 6 -12 -7 -1 -13 10 -18 10 -24
1 -4 -8 -3 -9 4 -5 16 10 15 -2 -2 -19 -7 -8 -17 -11 -21 -7 -5 4 -5 -1 -2
-11 4 -11 3 -16 -3 -12 -6 3 -13 -1 -16 -9 -3 -9 -11 -13 -17 -9 -6 4 -8 0 -4
-10 6 -16 -15 -41 -26 -30 -4 3 -7 1 -7 -5 0 -7 -3 -11 -7 -11 -20 3 -26 -2
-13 -11 13 -8 12 -10 -3 -10 -12 0 -16 -4 -11 -12 6 -10 4 -10 -8 0 -13 10
-18 10 -24 1 -4 -8 -3 -9 4 -5 16 10 15 -2 -2 -19 -7 -8 -17 -11 -21 -7 -4 4
-5 -4 -1 -18 3 -14 3 -19 0 -12 -3 6 -10 12 -15 12 -6 0 -7 -4 -4 -10 3 -5 1
-10 -5 -10 -6 0 -8 -5 -4 -12 6 -10 4 -10 -8 0 -13 10 -18 10 -24 1 -4 -8 -3
-9 4 -5 16 10 15 -2 -2 -19 -7 -8 -17 -11 -21 -7 -5 4 -5 -1 -2 -11 4 -11 3
-16 -3 -12 -6 3 -13 -1 -16 -9 -3 -9 -11 -13 -17 -9 -6 4 -8 0 -4 -10 6 -16
-15 -41 -26 -30 -4 3 -7 1 -7 -5 0 -7 -3 -11 -7 -11 -20 3 -24 -2 -13 -16 11
-13 10 -14 -5 -9 -14 6 -16 4 -10 -7 7 -12 6 -12 -7 -1 -13 10 -18 10 -24 1
-4 -8 -3 -9 4 -5 16 10 15 -2 -2 -19 -7 -8 -17 -11 -21 -7 -5 4 -5 -1 -2 -11
4 -11 3 -16 -3 -12 -6 3 -13 -1 -16 -9 -3 -9 -11 -13 -17 -9 -6 4 -8 0 -4 -10
6 -16 -15 -41 -26 -30 -4 3 -7 1 -7 -6 0 -7 -4 -10 -9 -6 -5 3 -12 -4 -16 -15
-4 -11 -11 -17 -17 -14 -7 5 -9 1 -5 -9 6 -16 -15 -41 -26 -30 -4 3 -7 1 -7
-5 0 -7 -3 -11 -7 -11 -20 3 -24 -2 -13 -16 11 -13 10 -14 -5 -9 -14 6 -16 4
-10 -7 7 -12 6 -12 -7 -1 -13 10 -18 10 -24 1 -4 -8 -3 -9 4 -5 16 10 15 -2
-2 -19 -7 -8 -17 -11 -21 -7 -5 4 -5 -1 -2 -11 4 -11 3 -16 -3 -12 -6 3 -13
-1 -16 -9 -3 -9 -11 -13 -16 -10 -6 4 -8 -3 -4 -17 3 -13 3 -18 0 -11 -8 18
-27 15 -20 -4 3 -8 2 -12 -4 -9 -6 3 -10 1 -10 -4 0 -6 -3 -10 -7 -10 -20 3
-26 -2 -13 -11 13 -8 12 -10 -3 -10 -12 0 -16 -4 -11 -12 6 -10 4 -10 -8 0
-13 10 -18 10 -24 1 -4 -8 -3 -9 4 -5 16 10 15 -2 -2 -19 -7 -8 -17 -11 -21
-7 -4 4 -5 -4 -1 -18 3 -14 3 -19 0 -12 -3 6 -10 12 -15 12 -6 0 -7 -4 -4 -10
3 -5 1 -10 -5 -10 -6 0 -8 -5 -4 -12 6 -10 4 -10 -8 0 -13 10 -18 10 -24 1 -4
-8 -3 -9 4 -5 16 10 15 -2 -2 -19 -7 -8 -17 -11 -21 -7 -5 4 -5 -1 -2 -11 4
-11 3 -16 -3 -12 -6 3 -13 -1 -16 -9 -3 -9 -11 -13 -16 -10 -6 4 -8 -3 -4 -17
3 -13 3 -18 0 -11 -8 18 -27 15 -20 -4 3 -8 2 -12 -4 -9 -6 3 -10 1 -10 -5 0
-6 -4 -9 -9 -5 -5 3 -12 -4 -16 -15 -4 -11 -11 -17 -17 -14 -7 5 -9 1 -5 -9 6
-16 -15 -41 -26 -30 -4 3 -7 1 -7 -5 0 -7 -3 -11 -7 -11 -20 3 -24 -2 -13 -16
11 -13 10 -14 -5 -9 -14 6 -16 4 -10 -7 7 -12 6 -12 -7 -1 -13 10 -18 10 -24
1 -4 -8 -3 -9 4 -5 7 4 12 4 12 1 0 -11 -27 -34 -33 -29 -3 3 -8 -4 -12 -15
-3 -12 -11 -21 -16 -21 -6 0 -7 -6 -3 -12 6 -10 4 -10 -8 0 -13 11 -16 10 -14
-5 0 -11 -5 -17 -13 -15 -9 2 -12 -4 -8 -17 3 -11 2 -20 -2 -19 -30 3 -43 -4
-38 -21 4 -15 0 -19 -15 -16 -14 3 -18 0 -15 -10 3 -7 -1 -16 -9 -19 -10 -4
-13 -2 -8 7 5 8 2 7 -9 -2 -13 -11 -15 -17 -6 -28 10 -11 8 -12 -6 -7 -14 6
-16 4 -10 -7 8 -12 6 -12 -8 0 -9 7 -16 24 -15 37 2 18 5 20 15 12 11 -8 12
-7 7 7 -5 13 -4 16 4 11 11 -7 17 6 13 28 -1 5 6 3 15 -5 12 -9 15 -9 10 -1
-5 8 -1 12 11 12 15 0 16 2 3 10 -13 8 -12 10 3 10 10 0 15 4 12 10 -3 6 1 7
9 4 9 -3 13 -10 10 -15 -3 -5 0 -9 5 -9 14 0 14 13 0 27 -18 18 -1 37 19 21
10 -8 13 -9 9 -1 -4 6 -4 14 1 17 5 3 7 19 4 35 -2 17 -8 28 -13 25 -5 -3 -9
0 -9 6 0 6 -5 8 -12 4 -6 -4 -8 -3 -5 3 9 15 -19 49 -52 63 -21 8 -28 17 -24
28 5 11 3 13 -7 7 -10 -6 -12 -4 -7 9 4 9 3 15 -2 11 -5 -3 -16 1 -24 9 -8 8
-18 12 -22 8 -4 -4 -6 -2 -5 3 5 21 0 36 -10 30 -5 -3 -10 -1 -10 5 0 6 -5 8
-10 5 -6 -4 -10 -3 -9 2 1 4 1 17 -1 28 l-1 20 -9 -20 c-8 -20 -9 -19 -9 1 -1
12 -9 28 -18 35 -16 12 -17 12 -8 -1 6 -10 4 -9 -6 2 -9 9 -20 14 -24 10 -5
-4 -5 -2 -1 5 3 6 2 14 -4 18 -6 4 -7 12 -3 18 4 7 -1 6 -10 -2 -15 -12 -17
-12 -11 4 5 13 4 16 -4 11 -7 -4 -12 -2 -12 4 0 6 -4 8 -10 5 -6 -4 -7 1 -3
11 5 13 3 15 -7 9 -10 -6 -12 -4 -6 10 6 16 4 16 -11 4 -9 -8 -14 -9 -11 -4 7
12 -17 37 -27 27 -4 -4 -6 -2 -5 3 5 22 -1 34 -20 40 -11 4 -17 11 -14 17 5 8
1 9 -11 4 -16 -6 -16 -4 -4 11 8 9 9 14 2 10 -6 -4 -14 -3 -18 3 -4 6 -11 7
-17 4 -7 -4 -8 -2 -4 4 4 7 2 12 -4 12 -6 0 -8 5 -5 10 6 10 -9 15 -30 10 -5
-1 -7 1 -3 5 4 4 0 14 -8 22 -8 8 -12 18 -9 23 3 4 -5 6 -17 3 -19 -4 -20 -3
-8 6 13 9 13 11 -2 11 -10 0 -24 13 -33 30 -16 32 -48 54 -60 42 -5 -4 -5 -1
-1 6 4 6 2 12 -4 12 -6 0 -8 5 -4 12 5 8 2 9 -9 5 -10 -3 -17 -2 -17 2 0 5 6
12 13 14 12 5 -19 11 -38 7 -5 -1 -7 2 -3 5 4 4 -1 15 -10 24 -11 10 -12 12
-2 6 13 -9 13 -8 1 7 -7 10 -22 18 -33 18 -17 0 -18 3 -8 15 10 12 8 14 -9 10
-12 -2 -19 0 -16 6 4 5 1 9 -5 9 -6 0 -8 4 -5 10 6 10 -9 15 -30 10 -5 -1 -7
1 -3 5 4 4 0 14 -8 22 -8 8 -12 18 -9 23 3 4 -5 6 -17 3 -19 -4 -20 -3 -8 6
13 9 13 11 -2 11 -10 0 -24 13 -33 30 -16 32 -48 54 -60 42 -5 -4 -5 -1 -1 5
4 7 2 13 -4 13 -6 0 -8 5 -4 12 5 8 2 9 -9 5 -10 -3 -17 -2 -17 2 0 5 6 12 13
14 11 5 -18 11 -36 8 -5 -1 -6 3 -3 8 3 5 -1 12 -10 15 -10 4 -14 12 -10 22 6
15 4 15 -11 3 -10 -7 -15 -10 -11 -5 8 10 -14 36 -25 29 -4 -2 -7 -1 -6 4 3
20 -2 34 -11 28 -5 -3 -10 -1 -10 5 0 6 -5 8 -10 5 -6 -4 -10 -3 -9 2 1 4 1
17 -1 28 l-1 20 -9 -20 c-8 -20 -9 -19 -9 1 -1 12 -9 28 -18 35 -17 13 -17 12
-4 -6 8 -11 -1 -4 -19 15 -18 19 -36 34 -41 33 -4 -2 -5 5 -2 14 4 11 3 14 -5
9 -7 -4 -12 -2 -12 4 0 6 -6 8 -12 4 -7 -4 -10 -4 -6 1 12 13 -10 44 -45 62
-18 10 -32 25 -32 33 0 8 -8 14 -18 13 -10 0 -16 1 -13 4 7 7 -18 32 -27 26
-4 -2 -7 -1 -6 4 3 20 -2 34 -11 28 -5 -3 -10 -1 -10 5 0 6 -5 8 -10 5 -6 -4
-10 -3 -9 2 1 4 1 17 -1 28 l-1 20 -9 -20 c-8 -20 -9 -20 -9 1 -1 11 -13 31
-28 45 l-28 24 25 -30 25 -30 -25 20 c-14 11 -26 20 -28 21 -2 1 0 14 4 29 5
20 9 23 16 13 7 -10 10 -10 19 5 5 9 17 17 26 17 9 0 13 6 10 14 -4 10 0 14
13 11 23 -5 44 19 36 41 -5 14 -4 15 9 4 13 -11 14 -10 9 5 -5 13 -4 16 4 11
7 -4 12 -2 12 4 0 7 7 10 15 6 13 -4 14 -2 5 14 -8 15 -7 18 3 15 7 -3 21 2
32 10 19 15 19 15 -5 4 -23 -11 -24 -11 -11 4 7 10 20 17 28 17 9 0 13 6 10
14 -4 10 0 13 14 11 11 -2 18 -1 15 3 -2 4 2 18 10 32 15 25 15 25 8 2 -6 -23
-6 -24 13 -5 10 10 15 20 10 22 -12 5 23 41 41 41 8 0 12 6 9 14 -4 11 1 13
21 10 17 -3 22 -1 14 4 -15 10 51 92 75 92 9 0 13 6 10 14 -4 10 0 14 13 11
11 -2 23 1 26 7 4 7 2 8 -4 4 -7 -4 -12 -2 -12 3 0 6 7 11 16 11 9 0 12 5 8
12 -5 7 -2 9 8 5 10 -3 15 0 14 11 0 10 6 16 16 16 11 -1 15 5 13 16 -2 11 2
17 13 16 9 0 16 5 14 12 -1 8 7 16 18 19 11 3 17 10 13 16 -4 6 0 8 10 4 11
-4 15 -1 12 12 -2 12 2 18 13 17 9 0 16 5 14 12 -1 8 6 16 17 19 10 3 21 14
24 24 3 11 11 18 19 17 7 -2 12 3 10 11 -2 8 3 11 12 8 11 -4 14 0 11 14 -4
17 -2 19 11 8 12 -10 13 -9 7 6 -5 14 -3 17 10 12 11 -4 15 -1 12 12 -2 12 2
18 13 17 9 0 17 5 17 12 0 15 25 33 36 26 4 -2 11 1 15 7 5 8 3 9 -6 4 -8 -5
-11 -3 -8 6 3 8 11 14 19 14 8 1 13 7 11 14 -2 8 3 11 12 8 11 -4 14 0 11 14
-4 18 -2 19 13 8 9 -7 14 -10 10 -5 -11 12 10 46 28 46 9 0 12 5 8 12 -5 7 -2
9 9 5 12 -4 15 -1 12 14 -4 17 -2 19 11 8 12 -10 13 -9 7 6 -5 14 -3 17 10 12
11 -4 15 -1 12 12 -2 12 2 18 13 17 9 0 16 5 14 12 -1 7 5 12 15 10 12 -2 17
3 15 15 -2 10 3 16 10 15 7 -2 12 5 12 14 -1 11 4 14 14 10 11 -4 14 -1 9 11
-4 11 -1 15 13 12 11 -2 23 1 26 7 5 7 2 8 -6 3 -8 -5 -11 -3 -8 6 3 8 11 14
19 14 8 0 14 8 14 17 0 25 21 43 30 27 6 -8 4 -10 -5 -4 -9 5 -11 4 -6 -4 4
-6 12 -9 17 -5 5 3 7 9 4 14 -3 4 2 11 11 14 9 4 14 13 10 21 -3 8 -2 14 2 14
20 -3 32 2 27 12 -4 6 0 9 8 7 9 -2 15 0 14 4 -1 4 7 13 17 21 12 9 16 19 11
28 -5 8 -5 11 0 7 12 -11 47 12 41 27 -3 9 1 12 14 10 11 -2 23 1 26 7 4 7 2
8 -4 4 -22 -14 -12 7 17 35 16 15 26 30 23 34 -4 3 1 3 10 0 17 -7 52 31 42
46 -2 4 1 11 7 15 8 4 9 3 5 -4 -10 -17 9 -15 24 3 6 8 9 19 6 24 -4 5 -1 13
5 17 8 4 9 3 5 -4 -4 -7 -2 -12 3 -12 6 0 11 6 11 13 0 20 47 58 54 44 4 -7 4
-2 2 10 -3 15 0 20 11 16 7 -3 13 -2 12 3 -3 19 2 28 9 17 6 -9 11 -6 21 8 7
12 8 18 2 15 -5 -4 -12 -2 -15 2 -3 5 7 9 22 8 21 -1 26 3 24 18 -2 11 1 15 8
11 6 -4 22 5 35 19 13 14 22 26 18 26 -3 0 5 9 18 21 24 20 24 20 2 9 -29 -14
-30 -5 -2 11 16 8 23 8 29 -1 5 -8 9 -4 13 10 4 16 2 20 -9 16 -9 -4 -12 -2
-8 5 3 6 14 9 24 6 14 -3 17 -1 13 11 -4 10 -2 13 5 8 7 -4 12 -2 12 5 0 8 5
8 18 -2 13 -10 12 -8 -3 10 -11 14 -15 22 -9 18 5 -3 23 3 40 14 31 20 26 26
-9 8 -21 -10 -21 -10 -3 5 11 9 26 16 33 16 7 0 13 5 13 11 0 8 6 7 18 -2 13
-10 12 -8 -3 10 -11 14 -14 21 -7 17 7 -4 15 -1 18 8 3 8 26 27 50 41 24 14
44 30 44 35 0 11 25 7 43 -8z m34 -28 c-3 -4 -2 -15 4 -26 6 -11 13 -17 16
-14 7 7 33 -19 33 -33 0 -6 6 -11 14 -11 8 0 18 -5 22 -12 4 -7 3 -8 -4 -4 -7
4 -12 2 -12 -3 0 -6 7 -11 16 -11 18 0 44 -23 44 -39 0 -6 6 -11 13 -11 14 0
54 -38 50 -46 -7 -10 -2 -25 6 -19 18 11 23 -17 6 -33 -10 -10 -15 -11 -11 -4
4 7 1 15 -8 18 -9 3 -16 12 -16 20 0 8 -5 14 -11 14 -14 0 -99 84 -99 97 0 6
-8 17 -17 24 -17 13 -17 12 -4 -6 8 -11 -5 -1 -28 21 -38 36 -42 44 -32 63 7
11 15 21 18 21 3 0 3 -3 0 -6z m-1127 -44 c0 -5 -5 -10 -11 -10 -5 0 -7 5 -4
10 3 6 8 10 11 10 2 0 4 -4 4 -10z m728 -225 c-6 -14 -13 -23 -15 -21 -5 5 15
46 22 46 3 0 -1 -11 -7 -25z m650 3 c-2 -7 3 -12 11 -10 8 2 11 -3 8 -12 -4
-10 -1 -13 9 -9 7 3 14 0 14 -6 0 -6 -5 -11 -12 -11 -6 0 -8 -3 -5 -6 4 -4 14
-1 22 6 9 7 15 9 14 4 -4 -24 2 -36 17 -30 8 3 12 2 9 -4 -3 -6 -1 -10 4 -10
6 0 11 -7 11 -16 0 -10 5 -14 16 -10 8 3 13 2 10 -2 -3 -5 4 -15 15 -22 10 -8
19 -19 19 -24 0 -5 -8 -2 -18 7 -15 14 -19 15 -19 2 0 -8 4 -12 8 -9 4 2 10 0
14 -5 3 -6 13 -7 22 -4 12 5 15 2 10 -10 -4 -12 -1 -15 15 -12 11 3 18 2 14
-2 -3 -3 3 -13 15 -21 15 -10 17 -17 9 -27 -9 -11 -7 -12 11 -8 15 4 20 2 17
-7 -2 -7 -14 -14 -26 -15 -11 -1 -19 1 -17 5 2 4 -9 17 -25 29 -17 12 -30 28
-30 36 0 8 -5 15 -10 15 -15 0 -110 92 -110 107 0 6 -9 15 -20 18 -11 3 -20
12 -20 20 0 8 -9 17 -20 20 -20 6 -25 16 -13 28 11 12 33 8 31 -5z m-1698 -98
c0 -5 -5 -10 -11 -10 -5 0 -7 5 -4 10 3 6 8 10 11 10 2 0 4 -4 4 -10z m1980
-180 c0 -5 -5 -10 -11 -10 -5 0 -7 -5 -3 -12 6 -9 9 -9 12 0 6 18 22 15 22 -4
0 -10 5 -14 16 -10 8 3 12 2 9 -4 -3 -6 -1 -10 4 -10 6 0 11 -7 11 -16 0 -11
5 -14 17 -10 10 4 14 4 10 0 -3 -4 2 -15 13 -24 18 -16 19 -19 4 -31 -14 -11
-22 -6 -64 38 -27 28 -51 48 -55 45 -4 -4 -5 -2 -3 5 2 6 -6 19 -17 28 -11 9
-15 14 -8 11 6 -4 14 -2 18 4 8 13 25 13 25 0z m-936 -16 c3 -8 2 -12 -4 -9
-6 3 -10 10 -10 16 0 14 7 11 14 -7z m-1324 -84 c0 -5 -5 -10 -11 -10 -5 0 -7
5 -4 10 3 6 8 10 11 10 2 0 4 -4 4 -10z m2400 -46 c0 -9 5 -12 13 -8 6 4 4 -2
-7 -14 -17 -20 -43 -22 -31 -2 3 5 1 11 -5 15 -13 8 -3 25 16 25 8 0 14 -7 14
-16z m40 -35 c0 -5 -5 -7 -12 -3 -7 4 -8 3 -4 -4 4 -6 14 -8 23 -5 12 5 15 2
10 -10 -3 -9 -2 -19 4 -22 5 -4 6 -12 3 -18 -4 -7 -3 -9 1 -4 5 4 17 -1 28
-10 11 -10 17 -12 13 -5 -4 6 -2 12 3 12 6 0 11 -7 11 -16 0 -10 5 -14 16 -10
8 3 12 2 9 -4 -3 -6 -1 -10 4 -10 6 0 11 -7 11 -16 0 -11 5 -14 17 -10 10 4
14 4 10 0 -4 -5 3 -14 15 -22 16 -9 17 -12 4 -7 -16 5 -17 3 -6 -10 7 -8 19
-15 27 -15 9 0 13 -6 10 -14 -4 -11 -1 -13 10 -9 13 5 15 2 9 -12 -4 -11 -4
-16 0 -12 4 4 13 -2 21 -13 8 -11 21 -20 29 -20 8 0 14 -7 14 -16 0 -9 9 -18
20 -21 11 -3 20 -10 20 -15 0 -5 -4 -6 -10 -3 -6 3 -7 -1 -4 -9 3 -9 1 -16 -5
-16 -10 0 -15 14 -12 34 1 5 -6 3 -15 -5 -10 -8 -15 -9 -11 -3 4 7 0 14 -8 18
-8 3 -15 12 -15 21 0 8 -7 15 -16 15 -9 0 -12 5 -8 12 5 7 2 9 -9 5 -12 -4
-14 -2 -10 10 4 11 2 14 -5 9 -7 -4 -12 -2 -12 4 0 14 -25 40 -37 40 -5 0 -28
20 -50 44 -23 25 -44 41 -48 38 -4 -4 -5 -2 -3 4 2 5 -9 22 -24 36 -15 14 -24
29 -20 33 4 5 -1 5 -11 2 -10 -4 -16 -3 -12 2 3 5 1 12 -5 16 -6 4 -8 11 -5
16 8 12 35 11 35 -2z m47 -44 c8 -9 13 -18 11 -21 -3 -2 -13 5 -23 16 -21 23
-11 27 12 5z m1022 -119 c-2 -2 -13 8 -23 22 l-19 27 24 -22 c12 -12 21 -24
18 -27z m-3769 -20 c0 -3 -4 -8 -10 -11 -5 -3 -10 -1 -10 4 0 6 5 11 10 11 6
0 10 -2 10 -4z m-60 -56 c0 -5 -5 -10 -11 -10 -5 0 -7 5 -4 10 3 6 8 10 11 10
2 0 4 -4 4 -10z m3100 -113 c0 -12 9 -28 20 -35 12 -7 18 -18 14 -24 -4 -7 -3
-8 4 -4 7 4 12 2 12 -3 0 -18 -12 -12 -46 23 -21 22 -32 41 -28 50 9 24 24 19
24 -7z m76 -83 c-3 -7 -1 -14 3 -14 5 0 12 6 14 13 3 7 6 4 6 -7 1 -12 6 -16
17 -12 8 3 13 2 10 -2 -7 -12 23 -54 34 -47 11 7 28 -17 25 -36 -2 -11 3 -15
20 -12 15 3 24 -1 29 -13 5 -14 4 -15 -9 -4 -13 11 -14 10 -9 -4 3 -9 15 -16
25 -16 11 0 19 -7 19 -17 0 -9 3 -13 7 -10 3 4 14 -7 25 -23 10 -17 21 -29 25
-28 5 2 9 -1 10 -6 1 -5 12 -14 25 -21 13 -6 22 -17 20 -23 -1 -7 5 -12 13
-12 8 0 15 -7 15 -15 0 -8 5 -14 12 -13 7 2 12 -4 13 -12 1 -8 7 -14 15 -12
11 3 11 0 -1 -14 -13 -16 -12 -16 8 -6 16 9 24 9 29 0 4 -7 3 -8 -4 -4 -7 4
-12 2 -12 -3 0 -10 14 -15 32 -12 4 0 4 -7 1 -16 -5 -12 -3 -14 7 -8 8 5 11 4
7 -2 -4 -6 1 -17 10 -24 14 -12 16 -12 8 0 -6 10 -4 12 4 7 7 -5 10 -15 6 -23
-4 -13 -3 -14 10 -3 13 11 15 10 10 -1 -3 -8 4 -18 17 -24 17 -7 23 -18 23
-40 0 -16 5 -30 11 -30 6 0 18 -8 28 -17 21 -21 23 -22 32 -6 4 6 3 8 -3 5 -6
-4 -18 2 -28 13 -10 11 -22 17 -26 14 -10 -6 -12 10 -3 19 4 4 16 -3 26 -16
11 -12 25 -22 31 -22 7 0 11 -8 9 -18 -2 -9 2 -17 8 -17 6 0 8 -4 5 -10 -3 -5
-2 -10 4 -10 5 0 12 6 15 13 3 6 4 3 3 -8 -1 -11 4 -20 11 -21 24 -3 24 -4 12
-19 -10 -12 -8 -14 9 -10 14 2 21 -1 21 -11 0 -9 5 -12 12 -8 7 4 8 3 4 -4 -4
-7 -1 -12 10 -12 14 0 14 -3 4 -15 -11 -13 -10 -14 4 -9 12 5 15 2 10 -9 -4
-12 0 -14 18 -10 22 5 22 5 5 -13 -17 -18 -18 -18 -42 10 -14 16 -25 34 -25
40 0 6 -5 4 -10 -4 -8 -12 -10 -11 -10 8 0 19 -9 26 -32 24 -3 -1 -9 5 -12 14
-4 10 -2 13 7 8 9 -5 9 -4 1 5 -6 7 -20 14 -30 15 -12 2 -18 10 -16 21 2 9 0
15 -5 12 -11 -7 -124 109 -115 118 4 5 -1 5 -10 2 -13 -4 -15 -2 -11 10 4 11
2 14 -5 9 -7 -4 -12 -1 -12 9 0 11 -5 15 -14 12 -11 -4 -13 -1 -9 10 4 10 2
14 -5 9 -6 -3 -17 3 -25 14 -7 11 -17 17 -21 12 -4 -4 -7 -2 -6 3 5 22 -1 35
-12 33 -7 -2 -12 3 -10 11 2 9 -3 11 -13 7 -13 -5 -14 -2 -4 17 11 20 11 21
-4 8 -15 -11 -17 -11 -17 1 0 8 -15 22 -32 31 -27 14 -29 16 -8 12 25 -5 25
-5 3 6 -13 7 -23 16 -23 21 0 4 -7 8 -16 8 -9 0 -12 5 -8 12 5 7 2 9 -9 5 -12
-4 -14 -2 -10 11 3 9 3 14 -1 10 -10 -8 -46 23 -46 40 0 7 -5 10 -12 6 -7 -4
-8 -3 -4 4 4 7 1 12 -6 12 -7 0 -22 8 -33 17 l-20 16 20 -7 20 -7 -20 18 c-11
11 -28 22 -37 26 -10 3 -18 14 -18 22 0 9 -4 13 -10 10 -5 -3 -10 -2 -10 4 0
5 -9 13 -21 16 -16 5 -18 9 -8 21 10 12 7 20 -14 42 -41 42 -32 48 9 7 21 -21
33 -42 30 -51z m1045 -111 c13 -16 12 -17 -3 -4 -10 7 -18 15 -18 17 0 8 8 3
21 -13z m-1687 -179 c3 -8 2 -12 -4 -9 -6 3 -10 10 -10 16 0 14 7 11 14 -7z
m-3914 -234 c0 -5 6 -9 13 -7 6 1 11 -4 10 -10 -2 -7 2 -13 8 -13 5 0 7 -4 4
-10 -6 -9 1 -12 22 -9 12 2 24 -31 17 -44 -5 -7 0 -6 11 3 17 14 18 13 13 -7
-4 -13 -1 -26 4 -30 6 -3 8 -2 5 3 -3 6 -1 16 5 24 8 12 9 12 4 -2 -6 -21 31
-61 48 -51 6 4 5 -1 -3 -10 -12 -15 -12 -17 3 -11 9 3 16 1 16 -6 0 -6 5 -8
12 -4 8 5 9 2 5 -9 -6 -16 3 -22 26 -18 5 1 6 -3 2 -9 -3 -5 -1 -10 5 -10 7 0
9 -7 6 -16 -6 -15 -4 -15 11 -3 15 13 16 12 11 -8 -4 -16 -2 -20 8 -16 8 3 14
0 14 -6 0 -6 7 -11 16 -11 8 0 12 -4 9 -10 -3 -5 -1 -10 5 -10 6 0 8 -4 5 -10
-3 -6 4 -10 17 -10 18 0 20 -2 8 -10 -13 -8 -12 -10 3 -10 9 0 17 -4 17 -10 0
-5 7 -10 16 -10 8 0 12 -4 9 -10 -3 -5 -1 -10 5 -10 6 0 8 -4 5 -10 -3 -5 1
-10 9 -10 9 0 16 -5 16 -11 0 -5 5 -7 12 -3 8 5 9 2 5 -9 -6 -16 4 -22 28 -17
6 1 7 -1 3 -5 -8 -9 16 -35 32 -35 6 0 8 -4 5 -10 -3 -5 -1 -10 5 -10 6 0 8
-4 5 -10 -6 -9 7 -14 21 -7 9 3 26 -32 20 -42 -4 -5 4 -7 16 -4 15 3 19 2 11
-4 -8 -6 -3 -13 18 -22 24 -11 28 -16 18 -27 -10 -12 -9 -13 6 -8 13 5 16 4
11 -4 -7 -11 6 -17 27 -13 5 1 6 -3 2 -9 -3 -5 -1 -10 5 -10 7 0 10 -6 7 -14
-4 -10 0 -12 15 -8 14 3 19 1 14 -6 -4 -7 -2 -12 4 -12 6 0 8 -4 5 -10 -3 -5
1 -10 9 -10 9 0 16 -5 16 -11 0 -5 5 -7 12 -3 8 5 9 2 5 -9 -6 -15 3 -22 26
-18 14 2 7 -20 -9 -26 -16 -6 -58 30 -47 41 4 3 1 6 -6 6 -15 0 -42 25 -35 33
3 2 -7 8 -23 11 -21 6 -24 9 -12 17 12 7 12 9 -2 9 -9 0 -24 11 -35 24 -10 14
-23 22 -28 20 -6 -3 -2 2 9 11 20 17 20 17 -4 10 -18 -5 -22 -4 -16 6 6 9 3
11 -9 6 -9 -4 -14 -3 -11 2 3 5 -4 13 -16 16 -19 7 -20 7 -2 21 16 13 16 13 1
8 -20 -7 -80 44 -71 60 4 5 -1 7 -11 3 -9 -4 -15 -3 -12 2 3 5 -5 17 -19 27
-13 10 -22 21 -19 26 5 8 -11 12 -31 8 -5 -1 -7 2 -3 6 5 4 -1 14 -12 21 -11
8 -17 19 -14 25 5 8 1 9 -12 4 -10 -4 -15 -4 -12 0 4 3 -4 16 -17 29 -14 12
-22 25 -18 28 3 4 -1 7 -11 7 -9 0 -14 5 -11 10 6 10 -9 15 -30 10 -5 -1 -7 1
-3 5 9 10 -15 34 -26 27 -5 -3 -6 0 -3 5 4 6 -4 19 -18 29 -13 10 -22 21 -19
26 5 7 -10 12 -28 9 -5 0 -7 5 -5 12 1 6 -5 11 -13 9 -8 -2 -12 -1 -8 3 9 10
-24 45 -35 38 -6 -3 -7 -1 -3 5 3 6 -3 14 -15 17 -19 7 -20 7 -2 21 16 13 16
13 1 8 -19 -6 -81 43 -72 58 3 4 -5 8 -18 9 -22 0 -22 1 -3 9 27 12 35 12 35
0z m1140 -181 c0 -5 5 -7 12 -3 8 5 9 0 5 -15 -5 -19 -3 -21 11 -9 9 7 14 8
10 4 -4 -5 -3 -15 2 -21 7 -9 6 -16 -5 -25 -12 -10 -15 -10 -15 4 0 10 -5 14
-10 11 -6 -4 -10 -3 -9 2 4 22 -2 35 -15 30 -12 -5 -14 6 -7 31 3 7 21 0 21
-9z m69 -76 c-11 -12 -10 -14 2 -13 26 4 40 0 34 -10 -3 -5 -1 -10 4 -10 14 0
14 -37 1 -45 -5 -3 -10 3 -10 14 0 11 -5 23 -12 27 -7 4 -8 3 -4 -4 5 -8 2
-10 -8 -6 -9 3 -14 10 -11 14 3 5 -2 13 -12 18 -14 9 -15 13 -4 26 7 9 17 13
23 10 5 -3 4 -12 -3 -21z m162 4 c-10 -9 -11 -8 -5 6 3 10 9 15 12 12 3 -3 0
-11 -7 -18z m3084 -55 c-3 -3 -11 0 -18 7 -9 10 -8 11 6 5 10 -3 15 -9 12 -12z
m-2950 -272 c3 -6 -1 -7 -9 -4 -18 7 -21 14 -7 14 6 0 13 -4 16 -10z m-697
-222 c-2 -7 3 -12 10 -10 8 1 11 -2 7 -8 -3 -5 -2 -10 3 -10 15 0 53 -41 47
-51 -4 -5 1 -9 9 -9 9 0 16 -5 16 -11 0 -5 5 -7 12 -3 8 5 9 2 5 -9 -6 -15 3
-22 26 -18 14 2 7 -20 -9 -26 -16 -6 -58 30 -47 41 4 3 1 6 -6 6 -16 0 -71 57
-63 66 4 4 0 5 -10 1 -21 -7 -31 3 -17 19 8 10 5 11 -13 8 -22 -5 -22 -5 2 10
31 19 31 19 28 4z m4116 -93 c-4 -8 -11 -15 -16 -15 -6 0 -5 6 2 15 7 8 14 15
16 15 2 0 1 -7 -2 -15z m-38 -40 c-8 -8 -18 -15 -22 -15 -3 0 -1 7 6 15 7 8
17 15 22 15 5 0 3 -7 -6 -15z m-3008 -30 c-3 -3 -9 2 -12 12 -6 14 -5 15 5 6
7 -7 10 -15 7 -18z m-917 1 c-10 -12 -8 -13 10 -9 15 4 20 3 15 -5 -4 -7 -2
-12 4 -12 6 0 8 -4 5 -10 -6 -9 8 -14 28 -11 14 2 7 -20 -9 -26 -15 -5 -58 30
-48 40 3 2 -8 8 -23 12 l-28 7 25 13 c32 18 35 18 21 1z m3843 -51 c-4 -8 -11
-15 -16 -15 -6 0 -5 6 2 15 7 8 14 15 16 15 2 0 1 -7 -2 -15z m-3763 -29 c-10
-12 -9 -14 5 -12 20 3 76 -52 68 -66 -3 -4 2 -8 11 -8 12 0 15 -5 11 -16 -6
-15 -4 -15 11 -3 15 12 16 12 10 -3 -4 -12 -2 -18 8 -18 8 0 15 -7 15 -15 0
-25 -23 -17 -57 20 -18 19 -36 35 -40 35 -5 0 -8 6 -8 13 -1 6 -6 11 -13 10
-7 -2 -11 3 -9 10 1 6 -4 11 -11 9 -8 -1 -11 2 -8 7 4 5 -4 13 -16 17 l-21 6
24 14 c31 17 34 17 20 0z m3643 -91 c-4 -8 -11 -15 -16 -15 -6 0 -5 6 2 15 7
8 14 15 16 15 2 0 1 -7 -2 -15z m-44 -44 c0 -5 -7 -12 -16 -15 -14 -5 -15 -4
-4 9 14 17 20 19 20 6z m-3435 -31 c4 -6 10 -8 15 -5 4 3 13 -9 19 -25 5 -17
12 -30 15 -30 3 0 3 8 -1 18 -5 14 -3 13 10 -3 8 -11 13 -23 11 -27 -5 -7 10
-12 28 -9 4 0 10 -9 13 -22 4 -12 24 -33 46 -47 21 -13 39 -28 39 -33 0 -4 -5
-5 -10 -2 -6 4 -17 2 -24 -4 -10 -8 -16 -5 -24 15 -7 15 -17 22 -24 18 -7 -4
-8 -3 -4 4 4 7 2 12 -4 12 -6 0 -8 5 -4 12 5 8 2 9 -12 4 -10 -4 -16 -4 -12
-1 8 8 -34 51 -45 47 -5 -1 -6 2 -2 8 3 5 1 10 -5 10 -7 0 -9 9 -5 23 3 12 3
17 -2 12 -7 -9 -16 -11 -39 -6 -4 0 -1 7 5 15 10 12 8 14 -11 9 -18 -4 -20 -3
-8 6 19 13 27 14 35 1z m993 -75 c-3 -3 -9 2 -12 12 -6 14 -5 15 5 6 7 -7 10
-15 7 -18z m2322 -14 c0 -5 -7 -12 -16 -15 -14 -5 -15 -4 -4 9 14 17 20 19 20
6z m-88 -88 c-6 -3 -9 -10 -6 -15 4 -7 2 -8 -5 -4 -9 6 -9 11 0 22 6 8 15 12
18 8 3 -4 0 -9 -7 -11z m-3021 -23 c5 0 9 -7 9 -15 0 -22 -28 -18 -41 7 -10
18 -9 20 6 15 9 -4 21 -7 26 -7z m2989 -9 c0 -5 -7 -12 -16 -15 -14 -5 -15 -4
-4 9 14 17 20 19 20 6z m-2955 -31 c4 -6 11 -7 17 -4 8 5 9 1 5 -10 -5 -14 -3
-17 8 -13 17 7 30 -9 15 -18 -5 -3 -10 -12 -10 -18 0 -8 3 -8 8 -2 4 6 13 11
21 13 12 3 12 0 2 -12 -14 -16 -6 -40 10 -31 5 4 13 -4 18 -17 7 -15 10 -17
10 -7 1 19 -23 42 -32 32 -4 -3 -7 -1 -7 5 0 16 11 15 34 -3 12 -9 17 -22 14
-38 -4 -20 -1 -23 17 -19 23 4 85 -51 85 -75 0 -23 -26 -14 -50 17 -12 16 -28
27 -34 24 -6 -3 -2 2 9 11 20 17 20 17 -3 10 -19 -5 -31 3 -70 46 -26 29 -46
56 -44 61 1 4 -2 9 -8 9 -5 1 -14 3 -20 4 -5 1 -13 3 -16 4 -4 0 -1 7 5 15 10
12 8 14 -11 9 -18 -4 -20 -3 -8 6 19 13 27 14 35 1z m2875 -49 c0 -5 -7 -12
-16 -15 -14 -5 -15 -4 -4 9 14 17 20 19 20 6z m-120 -120 c0 -5 -7 -12 -16
-15 -14 -5 -15 -4 -4 9 14 17 20 19 20 6z m-2525 -71 c-3 -5 -14 -10 -23 -10
-15 0 -15 2 -2 10 20 13 33 13 25 0z m22 -9 c-3 -14 -1 -18 9 -14 8 3 14 0 14
-7 0 -6 4 -9 9 -6 5 4 4 -5 -2 -18 -8 -16 -14 -20 -19 -13 -4 6 -4 15 -2 19 3
4 0 9 -5 9 -6 1 -15 3 -21 4 -5 1 -13 3 -17 4 -6 1 27 41 35 41 2 0 2 -9 -1
-19z m2415 -8 c-6 -3 -9 -10 -6 -15 4 -7 2 -8 -5 -4 -9 6 -9 11 0 22 6 8 15
12 18 8 3 -4 0 -9 -7 -11z m-32 -32 c0 -5 -7 -12 -16 -15 -14 -5 -15 -4 -4 9
14 17 20 19 20 6z m-2310 -27 c0 -3 -4 -3 -8 0 -5 3 -9 -1 -9 -9 0 -10 5 -11
19 -4 12 7 18 6 18 -1 0 -20 -33 -24 -46 -5 -22 29 -18 48 6 35 11 -6 20 -13
20 -16z m31 -38 c-10 -12 -8 -13 9 -9 14 4 20 1 18 -8 -2 -8 2 -13 9 -12 7 2
10 -4 6 -13 -3 -8 -2 -14 3 -13 22 4 32 -2 37 -22 3 -12 10 -18 16 -15 6 4 13
-4 17 -18 3 -14 13 -31 22 -38 15 -12 16 -11 3 5 -8 9 -12 19 -10 21 2 2 15
-11 29 -30 14 -18 33 -36 43 -39 9 -4 17 -11 17 -17 0 -6 -7 -5 -17 3 -16 13
-17 12 -4 -3 7 -10 19 -18 25 -18 20 0 56 -39 56 -60 0 -11 -5 -20 -11 -20
-14 0 -40 26 -32 34 3 3 -2 8 -11 12 -9 3 -13 10 -10 16 3 5 -2 8 -12 6 -11
-2 -18 2 -17 10 2 6 -5 12 -15 13 -10 0 -12 3 -4 6 6 2 12 9 12 14 0 6 -5 7
-11 4 -11 -8 -71 50 -62 59 4 3 -5 6 -18 6 -19 0 -21 2 -9 10 14 9 2 14 -17 8
-3 -2 -12 11 -19 27 -7 17 -13 24 -14 16 0 -11 -4 -9 -14 4 -8 11 -12 23 -10
26 2 4 -8 10 -24 14 l-27 7 25 13 c32 18 35 18 21 1z m2203 -11 c-4 -8 -11
-15 -16 -15 -6 0 -5 6 2 15 7 8 14 15 16 15 2 0 1 -7 -2 -15z m-1219 -45 c3
-6 -1 -7 -9 -4 -18 7 -21 14 -7 14 6 0 13 -4 16 -10z m1099 -75 c-4 -8 -11
-15 -16 -15 -6 0 -5 6 2 15 7 8 14 15 16 15 2 0 1 -7 -2 -15z m-80 -80 c-4 -8
-11 -15 -16 -15 -6 0 -5 6 2 15 7 8 14 15 16 15 2 0 1 -7 -2 -15z m-28 -37 c4
-7 3 -8 -4 -4 -7 4 -12 2 -12 -3 0 -6 -5 -11 -11 -11 -8 0 -8 5 1 15 15 18 17
18 26 3z m-1663 -92 c-4 -5 -1 -6 5 -2 6 4 9 14 6 24 -5 14 -4 15 5 2 15 -20
14 -40 -2 -40 -20 0 -47 38 -40 56 5 14 8 13 19 -7 7 -13 10 -28 7 -33z m587
-10 c0 -4 -7 -5 -16 -2 -12 4 -15 2 -10 -9 3 -8 1 -15 -5 -15 -6 0 -7 -5 -4
-11 4 -6 0 -9 -11 -7 -14 2 -19 -3 -18 -19 0 -16 -5 -20 -19 -17 -13 2 -17 -1
-13 -12 3 -9 1 -12 -4 -9 -6 3 -10 1 -10 -5 0 -15 -18 -3 -30 21 -8 15 -8 19
2 17 7 -2 12 3 10 11 -3 12 -1 12 14 0 12 -9 15 -9 10 -1 -4 7 -1 12 8 12 14
0 20 16 18 41 -1 3 5 6 13 6 8 0 11 -5 8 -10 -4 -6 -1 -7 6 -3 7 5 10 15 7 23
-3 8 -1 11 4 8 6 -3 10 2 10 11 0 16 1 16 15 -2 8 -10 15 -23 15 -28z m984 19
c-4 -8 -11 -15 -16 -15 -6 0 -5 6 2 15 7 8 14 15 16 15 2 0 1 -7 -2 -15z
m-1504 -37 c0 -6 -8 -4 -17 3 -16 13 -17 12 -4 -3 7 -10 20 -18 27 -18 8 0 14
-5 14 -11 0 -5 5 -7 10 -4 6 4 9 1 8 -7 -2 -7 2 -12 9 -11 8 2 10 -4 6 -14 -5
-12 -3 -14 8 -8 11 7 11 5 -1 -10 -14 -17 -14 -18 7 -7 16 9 24 9 29 0 4 -7 3
-8 -4 -4 -7 4 -12 2 -12 -3 0 -6 3 -11 8 -11 4 0 13 -9 19 -19 10 -16 9 -20
-3 -25 -9 -3 -12 -1 -9 4 3 6 1 10 -5 10 -6 0 -8 5 -4 12 5 8 2 9 -12 4 -10
-4 -15 -4 -12 0 4 3 -8 20 -27 37 -19 16 -32 34 -29 39 3 4 0 9 -5 9 -6 1 -17
2 -23 3 -7 1 -12 7 -10 14 1 7 -6 12 -15 12 -15 0 -15 2 2 14 20 14 45 11 45
-6z m390 -100 c0 -5 -13 -22 -29 -37 -16 -16 -28 -32 -25 -35 2 -3 1 -4 -2 -2
-9 7 -41 -28 -36 -38 3 -5 0 -6 -6 -2 -7 4 -12 2 -12 -4 0 -6 -4 -9 -9 -5 -6
3 -15 -3 -20 -14 -6 -11 -16 -18 -23 -17 -33 6 -58 18 -53 27 4 5 -1 9 -9 9
-9 0 -16 5 -16 11 0 5 5 7 12 3 7 -5 8 -3 4 5 -5 7 -14 10 -22 7 -8 -3 -13 0
-11 7 1 7 -4 11 -10 10 -16 -4 -17 13 -3 22 8 5 7 11 -1 21 -8 10 -8 14 0 14
6 0 11 -4 11 -8 0 -13 41 -57 50 -55 4 1 6 -7 3 -17 -4 -15 0 -20 13 -20 16 0
17 2 4 10 -21 13 -3 13 22 -1 11 -6 18 -7 15 -2 -3 4 2 15 11 23 14 13 15 12
9 -3 -6 -15 -4 -16 13 -7 11 6 20 13 20 16 0 3 -4 3 -9 -1 -6 -3 -9 3 -8 14 1
15 4 17 14 9 11 -8 12 -7 6 8 -6 17 -5 18 12 4 11 -9 16 -10 11 -2 -4 6 -2 12
3 12 6 0 11 5 11 11 0 5 -5 7 -12 3 -7 -4 -8 -3 -4 5 6 9 11 9 21 1 11 -10 13
-8 10 9 -2 14 1 21 11 21 10 0 12 5 8 13 -5 8 -2 8 9 -2 9 -7 17 -18 17 -23z
m994 17 c-4 -8 -11 -15 -16 -15 -6 0 -5 6 2 15 7 8 14 15 16 15 2 0 1 -7 -2
-15z m-80 -80 c-4 -8 -11 -15 -16 -15 -6 0 -5 6 2 15 7 8 14 15 16 15 2 0 1
-7 -2 -15z m-28 -37 c4 -7 3 -8 -4 -4 -7 4 -12 2 -12 -3 0 -6 -5 -11 -11 -11
-8 0 -8 5 1 15 15 18 17 18 26 3z m-132 -123 c-4 -8 -11 -15 -16 -15 -6 0 -5
6 2 15 7 8 14 15 16 15 2 0 1 -7 -2 -15z m-28 -37 c4 -7 3 -8 -4 -4 -7 4 -12
2 -12 -3 0 -6 -5 -11 -11 -11 -8 0 -8 5 1 15 15 18 17 18 26 3z m-92 -83 c-4
-8 -11 -15 -16 -15 -6 0 -5 6 2 15 7 8 14 15 16 15 2 0 1 -7 -2 -15z m-120
-120 c-4 -8 -11 -15 -16 -15 -6 0 -5 6 2 15 7 8 14 15 16 15 2 0 1 -7 -2 -15z
m-40 -40 c-4 -8 -11 -15 -16 -15 -6 0 -5 6 2 15 7 8 14 15 16 15 2 0 1 -7 -2
-15z m-120 -120 c-4 -8 -11 -15 -16 -15 -6 0 -5 6 2 15 7 8 14 15 16 15 2 0 1
-7 -2 -15z m-80 -80 c-4 -8 -11 -15 -16 -15 -6 0 -5 6 2 15 7 8 14 15 16 15 2
0 1 -7 -2 -15z m-40 -40 c-4 -8 -11 -15 -16 -15 -6 0 -5 6 2 15 7 8 14 15 16
15 2 0 1 -7 -2 -15z m-132 -132 c-6 -3 -9 -10 -6 -15 4 -7 2 -8 -5 -4 -9 6 -9
11 0 22 6 8 15 12 18 8 3 -4 0 -9 -7 -11z m-32 -32 c0 -5 -7 -12 -16 -15 -14
-5 -15 -4 -4 9 14 17 20 19 20 6z m-209 -134 c-10 -9 -11 -8 -5 6 3 10 9 15
12 12 3 -3 0 -11 -7 -18z"/>
<path d="M3520 5106 c0 -2 8 -10 18 -17 15 -13 16 -12 3 4 -13 16 -21 21 -21
13z"/>
<path d="M3015 4639 c-4 -6 -5 -12 -2 -15 2 -3 7 2 10 11 7 17 1 20 -8 4z"/>
<path d="M2865 4491 c-3 -5 -2 -12 3 -15 5 -3 9 1 9 9 0 17 -3 19 -12 6z"/>
<path d="M1844 3467 c-21 -18 -24 -26 -14 -32 8 -5 11 -4 6 3 -3 5 6 20 21 31
16 11 25 21 21 21 -4 0 -19 -11 -34 -23z"/>
<path d="M1740 3360 c-9 -6 -10 -10 -3 -10 6 0 15 5 18 10 8 12 4 12 -15 0z"/>
<path d="M4690 2951 c0 -6 4 -12 8 -15 5 -3 9 1 9 9 0 8 -4 15 -9 15 -4 0 -8
-4 -8 -9z"/>
<path d="M4270 2669 c0 -5 5 -7 10 -4 6 3 10 8 10 11 0 2 -4 4 -10 4 -5 0 -10
-5 -10 -11z"/>
<path d="M4110 2509 c0 -5 5 -7 10 -4 6 3 10 8 10 11 0 2 -4 4 -10 4 -5 0 -10
-5 -10 -11z"/>
<path d="M3870 2269 c0 -5 5 -7 10 -4 6 3 10 8 10 11 0 2 -4 4 -10 4 -5 0 -10
-5 -10 -11z"/>
<path d="M3710 2109 c0 -5 5 -7 10 -4 6 3 10 8 10 11 0 2 -4 4 -10 4 -5 0 -10
-5 -10 -11z"/>
<path d="M3630 2029 c0 -5 5 -7 10 -4 6 3 10 8 10 11 0 2 -4 4 -10 4 -5 0 -10
-5 -10 -11z"/>
<path d="M3150 1549 c0 -5 5 -7 10 -4 6 3 10 8 10 11 0 2 -4 4 -10 4 -5 0 -10
-5 -10 -11z"/>
<path d="M3577 5020 c7 -8 20 -15 29 -16 9 -1 13 1 9 4 -4 4 -10 7 -13 7 -4 0
-14 4 -22 9 -12 7 -13 6 -3 -4z"/>
<path d="M3678 4923 c7 -3 16 -2 19 1 4 3 -2 6 -13 5 -11 0 -14 -3 -6 -6z"/>
<path d="M3696 4901 c6 -7 18 -13 25 -14 8 -2 21 -7 29 -12 13 -8 13 -7 1 8
-8 10 -16 15 -19 13 -2 -3 -14 0 -26 6 -16 8 -18 8 -10 -1z"/>
<path d="M3885 4710 c3 -5 8 -10 11 -10 2 0 4 5 4 10 0 6 -5 10 -11 10 -5 0
-7 -4 -4 -10z"/>
<path d="M3925 4670 c3 -5 8 -10 11 -10 2 0 4 5 4 10 0 6 -5 10 -11 10 -5 0
-7 -4 -4 -10z"/>
<path d="M4005 4590 c3 -5 11 -10 16 -10 6 0 7 5 4 10 -3 6 -11 10 -16 10 -6
0 -7 -4 -4 -10z"/>
<path d="M4125 4470 c3 -5 8 -10 11 -10 2 0 4 5 4 10 0 6 -5 10 -11 10 -5 0
-7 -4 -4 -10z"/>
<path d="M4165 4430 c3 -5 8 -10 11 -10 2 0 4 5 4 10 0 6 -5 10 -11 10 -5 0
-7 -4 -4 -10z"/>
<path d="M4193 4415 c0 -8 4 -12 9 -9 5 3 6 10 3 15 -9 13 -12 11 -12 -6z"/>
<path d="M4365 4230 c3 -5 8 -10 11 -10 2 0 4 5 4 10 0 6 -5 10 -11 10 -5 0
-7 -4 -4 -10z"/>
<path d="M4405 4190 c3 -5 11 -10 16 -10 6 0 7 5 4 10 -3 6 -11 10 -16 10 -6
0 -7 -4 -4 -10z"/>
<path d="M5085 3510 c3 -5 8 -10 11 -10 2 0 4 5 4 10 0 6 -5 10 -11 10 -5 0
-7 -4 -4 -10z"/>
<path d="M5190 3420 c0 -6 4 -9 9 -6 5 4 12 1 14 -4 3 -6 4 -5 3 2 -3 15 -26
23 -26 8z"/>
<path d="M155 3369 c-4 -6 -5 -12 -2 -15 2 -3 7 2 10 11 7 17 1 20 -8 4z"/>
<path d="M992 2526 c7 -8 15 -12 17 -11 5 6 -10 25 -20 25 -5 0 -4 -6 3 -14z"/>
<path d="M1210 2313 c0 -5 13 -17 28 -27 l27 -19 -24 26 c-26 28 -31 32 -31
20z"/>
<path d="M1503 2015 c0 -8 4 -12 9 -9 5 3 6 10 3 15 -9 13 -12 11 -12 -6z"/>
<path d="M1768 1757 c12 -13 19 -27 15 -32 -5 -4 -2 -5 5 -1 11 6 8 13 -9 32
-12 13 -25 24 -27 24 -3 0 4 -10 16 -23z"/>
<path d="M2003 1515 c0 -8 4 -12 9 -9 5 3 6 10 3 15 -9 13 -12 11 -12 -6z"/>
<path d="M2103 1415 c0 -8 4 -12 9 -9 5 3 6 10 3 15 -9 13 -12 11 -12 -6z"/>
<path d="M2196 1321 c9 -17 17 -31 19 -31 8 0 -9 40 -21 51 -10 8 -10 3 2 -20z"/>
<path d="M3345 5930 c-3 -6 1 -7 9 -4 18 7 21 14 7 14 -6 0 -13 -4 -16 -10z"/>
<path d="M3234 5774 c-18 -14 -18 -15 4 -4 12 6 22 13 22 15 0 8 -5 6 -26 -11z"/>
<path d="M3160 5700 c-9 -6 -10 -10 -3 -10 6 0 15 5 18 10 8 12 4 12 -15 0z"/>
<path d="M3013 5563 c4 -3 1 -13 -6 -22 -11 -14 -10 -14 5 -2 16 12 16 31 1
31 -4 0 -3 -3 0 -7z"/>
<path d="M2840 5380 c-9 -6 -10 -10 -3 -10 6 0 15 5 18 10 8 12 4 12 -15 0z"/>
<path d="M2693 5243 c4 -3 1 -13 -6 -22 -11 -14 -10 -14 5 -2 16 12 16 31 1
31 -4 0 -3 -3 0 -7z"/>
<path d="M2446 4983 c-6 -14 -5 -15 5 -6 7 7 10 15 7 18 -3 3 -9 -2 -12 -12z"/>
<path d="M4675 4880 c3 -5 8 -10 11 -10 2 0 4 5 4 10 0 6 -5 10 -11 10 -5 0
-7 -4 -4 -10z"/>
<path d="M2280 4820 c-8 -5 -12 -12 -9 -15 4 -3 12 1 19 10 14 17 11 19 -10 5z"/>
<path d="M2155 4730 c3 -5 8 -10 11 -10 2 0 4 5 4 10 0 6 -5 10 -11 10 -5 0
-7 -4 -4 -10z"/>
<path d="M2126 4663 c-6 -14 -5 -15 5 -6 7 7 10 15 7 18 -3 3 -9 -2 -12 -12z"/>
<path d="M2069 4643 c-13 -16 -12 -17 4 -4 9 7 17 15 17 17 0 8 -8 3 -21 -13z"/>
<path d="M1949 4523 c-13 -16 -12 -17 4 -4 9 7 17 15 17 17 0 8 -8 3 -21 -13z"/>
<path d="M1960 4500 c-8 -5 -12 -12 -9 -15 4 -3 12 1 19 10 14 17 11 19 -10 5z"/>
<path d="M5109 4448 c21 -24 41 -29 41 -11 0 4 -3 3 -7 0 -3 -4 -18 3 -32 15
l-26 23 24 -27z"/>
<path d="M1880 4420 c-9 -6 -10 -10 -3 -10 6 0 15 5 18 10 8 12 4 12 -15 0z"/>
<path d="M5155 4400 c3 -5 8 -10 11 -10 2 0 4 5 4 10 0 6 -5 10 -11 10 -5 0
-7 -4 -4 -10z"/>
<path d="M1699 4273 c-13 -16 -12 -17 4 -4 9 7 17 15 17 17 0 8 -8 3 -21 -13z"/>
<path d="M1733 4283 c4 -3 1 -13 -6 -22 -11 -14 -10 -14 5 -2 16 12 16 31 1
31 -4 0 -3 -3 0 -7z"/>
<path d="M1610 4190 c0 -5 5 -10 11 -10 5 0 7 5 4 10 -3 6 -8 10 -11 10 -2 0
-4 -4 -4 -10z"/>
<path d="M5445 4110 c3 -5 8 -10 11 -10 2 0 4 5 4 10 0 6 -5 10 -11 10 -5 0
-7 -4 -4 -10z"/>
<path d="M1379 3953 c-13 -16 -12 -17 4 -4 16 13 21 21 13 21 -2 0 -10 -8 -17
-17z"/>
<path d="M1406 3944 c-5 -14 -4 -15 9 -4 17 14 19 20 6 20 -5 0 -12 -7 -15
-16z"/>
<path d="M1290 3870 c0 -5 5 -10 11 -10 5 0 7 5 4 10 -3 6 -8 10 -11 10 -2 0
-4 -4 -4 -10z"/>
<path d="M1149 3723 c-13 -16 -12 -17 4 -4 9 7 17 15 17 17 0 8 -8 3 -21 -13z"/>
<path d="M5845 3710 c3 -5 8 -10 11 -10 2 0 4 5 4 10 0 6 -5 10 -11 10 -5 0
-7 -4 -4 -10z"/>
<path d="M5890 3671 c0 -10 29 -36 34 -30 1 2 -6 12 -16 22 -10 9 -18 13 -18
8z"/>
<path d="M40 3470 c-8 -5 -10 -10 -5 -10 6 0 17 5 25 10 8 5 11 10 5 10 -5 0
-17 -5 -25 -10z"/>
<path d="M5540 3070 c0 -5 5 -10 11 -10 5 0 7 5 4 10 -3 6 -8 10 -11 10 -2 0
-4 -4 -4 -10z"/>
<path d="M5670 2940 c0 -5 5 -10 11 -10 5 0 7 5 4 10 -3 6 -8 10 -11 10 -2 0
-4 -4 -4 -10z"/>
<path d="M5775 2840 c4 -14 14 -32 22 -40 10 -11 9 -5 -3 20 -22 45 -28 52
-19 20z"/>
<path d="M5823 2791 c-1 -11 6 -25 15 -32 14 -11 15 -11 5 1 -7 8 -13 18 -13
23 0 4 6 5 13 1 8 -5 8 -2 -2 9 -17 21 -16 21 -18 -2z"/>
<path d="M4866 2768 c3 -4 9 -8 15 -8 5 0 9 4 9 8 0 5 -7 9 -15 9 -8 0 -12 -4
-9 -9z"/>
<path d="M4960 2676 c0 -2 7 -9 15 -16 13 -11 14 -10 9 4 -5 14 -24 23 -24 12z"/>
<path d="M5015 2630 c3 -5 8 -10 11 -10 2 0 4 5 4 10 0 6 -5 10 -11 10 -5 0
-7 -4 -4 -10z"/>
<path d="M5984 2625 c8 -8 18 -15 22 -15 3 0 1 7 -6 15 -7 8 -17 15 -22 15 -5
0 -3 -7 6 -15z"/>
<path d="M5020 2515 c-7 -8 -9 -15 -6 -15 4 0 14 7 22 15 9 8 11 15 6 15 -5 0
-15 -7 -22 -15z"/>
<path d="M4940 2435 c-9 -10 -9 -15 -1 -15 6 0 11 5 11 11 0 8 6 7 18 -2 15
-13 16 -12 3 4 -16 21 -16 21 -31 2z"/>
<path d="M5630 2171 c0 -6 4 -13 10 -16 6 -3 7 1 4 9 -7 18 -14 21 -14 7z"/>
<path d="M4590 2085 c-11 -13 -10 -14 4 -9 9 3 16 10 16 15 0 13 -6 11 -20 -6z"/>
<path d="M4512 2008 c-7 -7 -12 -16 -12 -21 0 -5 7 -1 16 8 9 9 14 18 12 20
-2 3 -10 -1 -16 -7z"/>
<path d="M4425 1919 c-4 -6 -4 -13 -1 -16 3 -4 6 -1 6 6 0 7 5 9 12 5 7 -4 8
-3 4 4 -9 15 -13 15 -21 1z"/>
<path d="M4270 1765 c-11 -13 -10 -14 4 -9 9 3 16 10 16 15 0 13 -6 11 -20 -6z"/>
<path d="M4192 1688 c-7 -7 -12 -16 -12 -21 0 -5 7 -1 16 8 9 9 14 18 12 20
-2 3 -10 -1 -16 -7z"/>
<path d="M4145 1640 c-10 -11 -15 -20 -11 -20 11 0 39 30 34 36 -3 2 -13 -5
-23 -16z"/>
<path d="M5040 1585 c-9 -10 -9 -15 -1 -15 6 0 11 5 11 11 0 5 5 7 12 3 7 -4
8 -3 4 4 -9 15 -11 15 -26 -3z"/>
<path d="M4020 1515 c-7 -9 -8 -15 -2 -15 5 0 12 7 16 15 3 8 4 15 2 15 -2 0
-9 -7 -16 -15z"/>
<path d="M3935 1430 c-3 -5 -1 -10 4 -10 6 0 11 5 11 10 0 6 -2 10 -4 10 -3 0
-8 -4 -11 -10z"/>
<path d="M3900 1395 c-7 -8 -9 -15 -6 -15 4 0 14 7 22 15 9 8 11 15 6 15 -5 0
-15 -7 -22 -15z"/>
<path d="M4790 1329 c0 -5 5 -7 10 -4 6 3 10 8 10 11 0 2 -4 4 -10 4 -5 0 -10
-5 -10 -11z"/>
<path d="M3820 1315 c-7 -9 -8 -15 -2 -15 5 0 12 7 16 15 3 8 4 15 2 15 -2 0
-9 -7 -16 -15z"/>
<path d="M3700 1195 c-7 -9 -8 -15 -2 -15 5 0 12 7 16 15 3 8 4 15 2 15 -2 0
-9 -7 -16 -15z"/>
<path d="M3580 1075 c-7 -8 -9 -15 -6 -15 4 0 14 7 22 15 9 8 11 15 6 15 -5 0
-15 -7 -22 -15z"/>
<path d="M1590 996 c0 -2 7 -7 16 -10 8 -3 12 -2 9 4 -6 10 -25 14 -25 6z"/>
<path d="M4430 971 c0 -6 4 -13 10 -16 6 -3 7 1 4 9 -7 18 -14 21 -14 7z"/>
<path d="M3460 955 c-7 -9 -8 -15 -2 -15 5 0 12 7 16 15 3 8 4 15 2 15 -2 0
-9 -7 -16 -15z"/>
<path d="M3420 915 c-7 -8 -9 -15 -6 -15 4 0 14 7 22 15 9 8 11 15 6 15 -5 0
-15 -7 -22 -15z"/>
<path d="M3340 835 c-7 -9 -8 -15 -2 -15 5 0 12 7 16 15 3 8 4 15 2 15 -2 0
-9 -7 -16 -15z"/>
<path d="M3180 675 c-7 -8 -9 -15 -6 -15 4 0 14 7 22 15 9 8 11 15 6 15 -5 0
-15 -7 -22 -15z"/>
<path d="M4050 596 c0 -2 7 -7 16 -10 8 -3 12 -2 9 4 -6 10 -25 14 -25 6z"/>
<path d="M3061 557 c-8 -10 -7 -14 2 -14 8 0 14 6 14 14 0 7 -1 13 -2 13 -2 0
-8 -6 -14 -13z"/>
<path d="M2940 435 c-7 -8 -9 -15 -6 -15 4 0 14 7 22 15 9 8 11 15 6 15 -5 0
-15 -7 -22 -15z"/>
<path d="M2751 246 c-9 -11 -9 -16 0 -22 7 -4 9 -3 5 4 -3 5 0 12 6 15 7 2 10
7 7 11 -3 4 -12 0 -18 -8z"/>
</g>
</svg>
